<?xml version="1.0" standalone="no"?>
<!DOCTYPE svg PUBLIC "-//W3C//DTD SVG 1.1//EN" "http://www.w3.org/Graphics/SVG/1.1/DTD/svg11.dtd" >
<svg xmlns="http://www.w3.org/2000/svg" xmlns:xlink="http://www.w3.org/1999/xlink" version="1.1">
<metadata>
Created by FontForge 20190801 at Tue Jul 18 02:12:19 2023
 By www-data
</metadata>
<defs>
<font id="feather" horiz-adv-x="1024" >
  <font-face 
    font-family="feather"
    font-weight="400"
    font-stretch="normal"
    units-per-em="1024"
    panose-1="0 0 0 0 0 0 0 0 0 0"
    ascent="960"
    descent="-64"
    bbox="-5.5 -65 1025.66 961"
    underline-thickness="0"
    underline-position="0"
    unicode-range="U+0001-FFFD"
  />
<missing-glyph 
 />
    <glyph glyph-name=".notdef" unicode="&#xfffd;" 
 />
    <glyph glyph-name="glyph1" horiz-adv-x="0" 
d="M0 0v0v0v0z" />
    <glyph glyph-name="glyph1" horiz-adv-x="0" 
d="M0 0v0v0v0z" />
    <glyph glyph-name="uni0001" horiz-adv-x="0" 
d="M0 0v0v0v0z" />
    <glyph glyph-name="space" unicode=" " horiz-adv-x="512" 
d="M0 0v0v0v0z" />
    <glyph glyph-name="zero" unicode="0" 
d="M0 0v0v0v0z" />
    <glyph glyph-name="uniE900" unicode="&#xe900;" 
d="M382 875q-14 -1 -24 -9t-14 -20v0l-119 -355h-140v0v0q-18 0 -30.5 -12.5t-12.5 -30.5t12.5 -30.5t30.5 -12.5v0v0h171v0v0q14 0 25 8.5t15 20.5h1l87 263l215 -647q5 -12 16 -20.5t25 -8.5t25 8.5t15 20.5h1l118 355h140v0v0q18 0 30.5 12.5t12.5 30.5t-12.5 30.5
t-30.5 12.5v0v0h-171v0v0q-14 0 -25 -8.5t-15 -20.5v-1l-88 -262l-215 646q-5 13 -16 21.5t-25 8.5h-1.5h-0.5v0v0z" />
    <glyph glyph-name="uniE901" unicode="&#xe901;" 
d="M171 875q-53 0 -90.5 -38t-37.5 -90v-427q0 -53 37.5 -90.5t90.5 -37.5h42h0.5h0.5q18 0 30.5 12.5t12.5 30.5q0 17 -12.5 29.5t-30.5 12.5h-0.5h-0.5h-42q-18 0 -30.5 12.5t-12.5 30.5v427q0 18 12.5 30t30.5 12h682q18 0 30.5 -12t12.5 -30v-427q0 -18 -12.5 -30.5
t-30.5 -12.5h-42h-0.5h-0.5q-18 0 -30.5 -12.5t-12.5 -29.5q0 -18 12.5 -30.5t30.5 -12.5h0.5h0.5h42q53 0 90.5 37.5t37.5 90.5v427q0 52 -37.5 90t-90.5 38h-682zM511 363q-10 -1 -18 -5t-14 -11v0l-213 -256q-5 -5 -7.5 -12t-2.5 -15q0 -18 12.5 -30.5t30.5 -12.5h426
q18 0 30.5 12.5t12.5 30.5q0 8 -2.5 15t-7.5 12v0l-213 256q-6 7 -14.5 11.5t-18.5 4.5h-0.5h-0.5v0v0zM512 253l122 -146h-244z" />
    <glyph glyph-name="uniE902" unicode="&#xe902;" 
d="M512 917q-97 0 -182 -37q-86 -37 -149.5 -100.5t-100.5 -149.5q-37 -85 -37 -182t37 -182q37 -86 100.5 -149.5t149.5 -100.5q85 -37 182 -37t182 37q86 37 149.5 100.5t100.5 149.5q37 85 37 182t-37 182q-37 86 -100.5 149.5t-149.5 100.5q-85 37 -182 37v0zM512 832
q80 0 150 -30t122 -82t82 -122t30 -150t-30 -150t-82 -122t-122 -82t-150 -30t-150 30t-122 82t-82 122t-30 150t30 150t82 122t122 82t150 30zM511 662q-17 0 -29.5 -12.5t-12.5 -30.5v0v0v0v-171v0v-1q0 -17 12.5 -29.5t30.5 -12.5t30.5 12.5t12.5 29.5v1v0v0v171v0v0
q0 18 -12.5 30.5t-30.5 12.5h-0.5h-0.5v0v0zM512 320v0h-1q-17 0 -29.5 -12.5t-12.5 -30.5q0 -17 12.5 -29.5t29.5 -12.5h1v0v0h1v0q18 0 30.5 12.5t12.5 29.5q0 18 -12.5 30.5t-30.5 12.5v0h-1v0v0z" />
    <glyph glyph-name="uniE903" unicode="&#xe903;" 
d="M335 917q-9 0 -16.5 -3t-13.5 -9l-250 -250q-6 -6 -9 -13.5t-3 -16.5v-354q0 -9 3 -16.5t9 -13.5l250 -250q6 -6 13.5 -9t16.5 -3h354q9 0 16.5 3t13.5 9l250 250q6 6 9 13.5t3 16.5v0v354q0 9 -3 16.5t-9 13.5l-250 250q-6 6 -13.5 9t-16.5 3v0h-354zM353 832h318
l225 -225v-318l-225 -225h-318l-225 225v318zM511 662q-17 0 -29.5 -12.5t-12.5 -30.5v0v0v0v-171v0v-1q0 -17 12.5 -29.5t30.5 -12.5t30.5 12.5t12.5 29.5v1v0v0v171v0v0q0 18 -12.5 30.5t-30.5 12.5h-0.5h-0.5v0v0zM512 320v0h-1q-17 0 -29.5 -12.5t-12.5 -30.5
q0 -17 12.5 -29.5t29.5 -12.5h1v0v0h1v0q18 0 30.5 12.5t12.5 29.5q0 18 -12.5 30.5t-30.5 12.5v0h-1v0v0z" />
    <glyph glyph-name="uniE904" unicode="&#xe904;" 
d="M512 878q-32 0 -61.5 -15t-47.5 -46h-0.5h-0.5v0l-361 -603v0v-1v0q-36 -62 0.5 -126.5t108.5 -65.5v0v0h0.5h0.5h722h0.5h0.5v0v0v0q72 1 108.5 65.5t0.5 126.5v1v0v0l-361 603h-0.5h-0.5v0q-18 31 -47.5 46t-61.5 15v0zM512 795q10 0 20 -5.5t16 -16.5l361 -602
q13 -23 1.5 -43.5t-37.5 -20.5h-722q-26 0 -37.5 20.5t1.5 43.5l361 602q6 11 16 16.5t20 5.5v0zM511 619q-17 0 -29.5 -12.5t-12.5 -29.5v-1v0v0v-171v0v0q0 -18 12.5 -30.5t30.5 -12.5t30.5 12.5t12.5 30.5v0v0v0v171v0v1q0 17 -12.5 29.5t-30.5 12.5h-0.5h-0.5v0v0z
M512 277v0h-1q-17 0 -29.5 -12.5t-12.5 -29.5q0 -18 12.5 -30.5t29.5 -12.5h1v0v0h1v0q18 0 30.5 12.5t12.5 30.5q0 17 -12.5 29.5t-30.5 12.5v0h-1v0v0z" />
    <glyph glyph-name="uniE905" unicode="&#xe905;" 
d="M256 576v0h-1q-17 0 -29.5 -12.5t-12.5 -30.5q0 -17 12.5 -29.5t29.5 -12.5h1v0h512v0h1q17 0 29.5 12.5t12.5 29.5q0 18 -12.5 30.5t-29.5 12.5h-1v0v0h-512zM128 747v0h-1q-17 0 -29.5 -12.5t-12.5 -30.5t12.5 -30.5t29.5 -12.5h1v0h768v0h1q17 0 29.5 12.5t12.5 30.5
t-12.5 30.5t-29.5 12.5h-1v0v0h-768zM128 405v0h-1q-17 0 -29.5 -12.5t-12.5 -29.5q0 -18 12.5 -30.5t29.5 -12.5h1v0h768v0h1q17 0 29.5 12.5t12.5 30.5q0 17 -12.5 29.5t-29.5 12.5h-1v0v0h-768zM256 235v0h-1q-17 0 -29.5 -12.5t-12.5 -30.5t12.5 -30.5t29.5 -12.5h1v0
h512v0h1q17 0 29.5 12.5t12.5 30.5t-12.5 30.5t-29.5 12.5h-1v0v0h-512z" />
    <glyph glyph-name="uniE906" unicode="&#xe906;" 
d="M128 576v0h-1q-17 0 -29.5 -12.5t-12.5 -30.5q0 -17 12.5 -29.5t29.5 -12.5h1v0h768v0h1q17 0 29.5 12.5t12.5 29.5q0 18 -12.5 30.5t-29.5 12.5h-1v0v0h-768zM128 747v0h-1q-17 0 -29.5 -12.5t-12.5 -30.5t12.5 -30.5t29.5 -12.5h1v0h768v0h1q17 0 29.5 12.5t12.5 30.5
t-12.5 30.5t-29.5 12.5h-1v0v0h-768zM128 405v0h-1q-17 0 -29.5 -12.5t-12.5 -29.5q0 -18 12.5 -30.5t29.5 -12.5h1v0h768v0h1q17 0 29.5 12.5t12.5 30.5q0 17 -12.5 29.5t-29.5 12.5h-1v0v0h-768zM128 235v0h-1q-17 0 -29.5 -12.5t-12.5 -30.5t12.5 -30.5t29.5 -12.5h1v0
h768v0h1q17 0 29.5 12.5t12.5 30.5t-12.5 30.5t-29.5 12.5h-1v0v0h-768z" />
    <glyph glyph-name="uniE907" unicode="&#xe907;" 
d="M128 576v0h-1q-17 0 -29.5 -12.5t-12.5 -30.5q0 -17 12.5 -29.5t29.5 -12.5h1v0h597h0.5h0.5q18 0 30.5 12.5t12.5 29.5q0 18 -12.5 30.5t-30.5 12.5h-0.5h-0.5v0h-597zM128 747v0h-1q-17 0 -29.5 -12.5t-12.5 -30.5t12.5 -30.5t29.5 -12.5h1v0h768v0h1q17 0 29.5 12.5
t12.5 30.5t-12.5 30.5t-29.5 12.5h-1v0v0h-768zM128 405v0h-1q-17 0 -29.5 -12.5t-12.5 -29.5q0 -18 12.5 -30.5t29.5 -12.5h1v0h768v0h1q17 0 29.5 12.5t12.5 30.5q0 17 -12.5 29.5t-29.5 12.5h-1v0v0h-768zM128 235v0h-1q-17 0 -29.5 -12.5t-12.5 -30.5t12.5 -30.5
t29.5 -12.5h1v0h597h0.5h0.5q18 0 30.5 12.5t12.5 30.5t-12.5 30.5t-30.5 12.5h-0.5h-0.5v0h-597z" />
    <glyph glyph-name="uniE908" unicode="&#xe908;" 
d="M299 576h-0.5h-0.5q-18 0 -30.5 -12.5t-12.5 -30.5q0 -17 12.5 -29.5t30.5 -12.5h0.5h0.5h597v0h1q17 0 29.5 12.5t12.5 29.5q0 18 -12.5 30.5t-29.5 12.5h-1v0v0h-597zM128 747v0h-1q-17 0 -29.5 -12.5t-12.5 -30.5t12.5 -30.5t29.5 -12.5h1v0h768v0h1q17 0 29.5 12.5
t12.5 30.5t-12.5 30.5t-29.5 12.5h-1v0v0h-768zM128 405v0h-1q-17 0 -29.5 -12.5t-12.5 -29.5q0 -18 12.5 -30.5t29.5 -12.5h1v0h768v0h1q17 0 29.5 12.5t12.5 30.5q0 17 -12.5 29.5t-29.5 12.5h-1v0v0h-768zM299 235h-0.5h-0.5q-18 0 -30.5 -12.5t-12.5 -30.5t12.5 -30.5
t30.5 -12.5h0.5h0.5h597v0h1q17 0 29.5 12.5t12.5 30.5t-12.5 30.5t-29.5 12.5h-1v0v0h-597z" />
    <glyph glyph-name="uniE909" unicode="&#xe909;" 
d="M512 917q-70 0 -120.5 -50t-50.5 -120q0 -71 50.5 -121t120.5 -50t120.5 50t50.5 121q0 70 -50.5 120t-120.5 50v0zM512 832q36 0 60.5 -25t24.5 -60q0 -36 -24.5 -61t-60.5 -25t-60.5 25t-24.5 61q0 35 24.5 60t60.5 25zM511 662q-17 0 -29.5 -12.5t-12.5 -30.5v0v0v0
v-598v0v0q0 -18 12.5 -30.5t30.5 -12.5t30.5 12.5t12.5 30.5v0v0v0v598v0v0q0 18 -12.5 30.5t-30.5 12.5h-0.5h-0.5v0v0zM85 491q-17 0 -29.5 -12.5t-12.5 -30.5v0q0 -97 37 -182q37 -86 100.5 -149.5t149.5 -100.5q85 -37 182 -37t182 37q86 37 149.5 100.5t100.5 149.5
q37 85 37 182q0 18 -12.5 30.5t-29.5 12.5h-128h-0.5h-0.5q-18 0 -30.5 -12.5t-12.5 -30.5t12.5 -30.5t30.5 -12.5h0.5h0.5h76q-8 -71 -40 -134q-32 -62 -81.5 -108t-114.5 -73q-65 -26 -139 -26t-139 26q-65 27 -114.5 73t-81.5 108q-32 63 -40 134h76h0.5h0.5
q18 0 30.5 12.5t12.5 30.5t-12.5 30.5t-30.5 12.5h-0.5h-0.5v0h-128z" />
    <glyph glyph-name="uniE90A" unicode="&#xe90a;" 
d="M512 917q-97 0 -182 -37q-86 -37 -149.5 -100.5t-100.5 -149.5q-37 -85 -37 -182t37 -182q37 -86 100.5 -149.5t149.5 -100.5q85 -37 182 -37t182 37q86 37 149.5 100.5t100.5 149.5q37 85 37 182t-37 182q-37 86 -100.5 149.5t-149.5 100.5q-85 37 -182 37v0zM512 832
q80 0 150 -30t122 -82t82 -122t30 -150t-30 -150t-82 -122t-122 -82t-150 -30t-150 30t-122 82t-82 122t-30 150t30 150t82 122t122 82t150 30zM609 662q-18 -1 -29.5 -13.5t-11.5 -29.5q0 -6 1.5 -11.5t4.5 -10.5v0l244 -424q6 -9 16 -15t21 -6q18 0 30.5 12.5t12.5 30.5
q0 5 -1.5 10.5t-4.5 10.5v0l-244 424q-6 10 -16 16t-22 6h-0.5h-0.5v0v0zM413 661v0v0q-18 0 -30.5 -12.5t-12.5 -29.5q0 -18 12.5 -30.5t30.5 -12.5v0v0h490h0.5h0.5q18 0 30.5 12.5t12.5 30.5q0 17 -12.5 29.5t-30.5 12.5h-0.5h-0.5v0h-490zM560 915v0v0q-12 0 -22 -6
t-15 -15v-1l-245 -424q-3 -4 -4.5 -9.5t-1.5 -11.5q0 -18 12.5 -30.5t30.5 -12.5q12 0 21.5 6t15.5 15v1l245 424q3 4 4.5 10t1.5 12q0 17 -12.5 29.5t-30.5 12.5v0v0zM167 745q-18 -1 -29.5 -13.5t-11.5 -29.5q0 -6 1.5 -11.5t4.5 -10.5v0l244 -424q6 -10 16 -15.5t21 -5.5
q18 0 30.5 12.5t12.5 29.5q0 6 -1.5 11.5t-4.5 10.5v0l-245 424q-5 10 -15 16t-22 6h-0.5h-1.5h1v0zM121 320h-0.5h-0.5q-18 0 -30.5 -12.5t-12.5 -30.5q0 -17 12.5 -29.5t30.5 -12.5h0.5h0.5h490v0v0q18 0 30.5 12.5t12.5 29.5q0 18 -12.5 30.5t-30.5 12.5v0v0v0h-490z
M710 491h-0.5h-0.5q-12 0 -21.5 -6t-15.5 -15v-1l-245 -424q-2 -4 -3.5 -9.5t-1.5 -11.5q0 -18 12.5 -30.5t29.5 -12.5q12 0 22 6t15 15v1l245 424q3 4 4.5 9.5t1.5 11.5q0 18 -12.5 30.5t-29.5 12.5v0v0z" />
    <glyph glyph-name="uniE90B" unicode="&#xe90b;" 
d="M127 662q-17 0 -29.5 -12.5t-12.5 -30.5v0v0v0v-555q0 -18 12.5 -30.5t30.5 -12.5h768q18 0 30.5 12.5t12.5 30.5v0v555v0v0q0 18 -12.5 30.5t-30.5 12.5t-30.5 -12.5t-12.5 -30.5v0v0v0v-512h-682v512v0v0q0 18 -12.5 30.5t-30.5 12.5h-0.5h-0.5v0v0zM43 875
q-18 0 -30.5 -12.5t-12.5 -30.5v0v-213q0 -18 12.5 -30.5t30.5 -12.5h938q18 0 30.5 12.5t12.5 30.5v0v213q0 18 -12.5 30.5t-30.5 12.5v0h-938zM85 789h854v-128h-854v128zM427 491h-0.5h-0.5q-18 0 -30.5 -12.5t-12.5 -30.5t12.5 -30.5t30.5 -12.5h0.5h0.5h170h0.5h0.5
q18 0 30.5 12.5t12.5 30.5t-12.5 30.5t-30.5 12.5h-0.5h-0.5v0h-170z" />
    <glyph glyph-name="uniE90C" unicode="&#xe90c;" 
d="M511 790q-17 0 -29.5 -12.5t-12.5 -30.5v0v0v0v-598v0v0q0 -18 12.5 -30.5t30.5 -12.5t30.5 12.5t12.5 30.5v0v0v0v598v0v0q0 18 -12.5 30.5t-30.5 12.5h-0.5h-0.5v0v0zM213 491q-18 0 -30.5 -12.5t-12.5 -30.5q0 -9 3.5 -16.5t9.5 -13.5l299 -299q6 -6 13.5 -9t16.5 -3
t16.5 3t13.5 9l299 299q6 6 9.5 14t3.5 17q0 17 -12.5 29.5t-30.5 12.5q-9 0 -17 -3.5t-13 -9.5v0l-269 -268l-268 268q-6 6 -14 9.5t-17 3.5v0v0z" />
    <glyph glyph-name="uniE90D" unicode="&#xe90d;" 
d="M512 917q-97 0 -182 -37q-86 -37 -149.5 -100.5t-100.5 -149.5q-37 -85 -37 -182t37 -182q37 -86 100.5 -149.5t149.5 -100.5q85 -37 182 -37t182 37q86 37 149.5 100.5t100.5 149.5q37 85 37 182t-37 182q-37 86 -100.5 149.5t-149.5 100.5q-85 37 -182 37v0zM512 832
q80 0 150 -30t122 -82t82 -122t30 -150t-30 -150t-82 -122t-122 -82t-150 -30t-150 30t-122 82t-82 122t-30 150t30 150t82 122t122 82t150 30zM341 491q-18 0 -30.5 -12.5t-12.5 -30.5q0 -9 3.5 -16.5t9.5 -13.5l171 -171q6 -6 13.5 -9t16.5 -3t16.5 3t13.5 9l171 171
q6 6 9.5 14t3.5 17q0 17 -12.5 29.5t-30.5 12.5q-9 0 -17 -3.5t-13 -9.5v0l-141 -140l-140 140q-6 6 -14 9.5t-17 3.5v0v0zM511 662q-17 0 -29.5 -12.5t-12.5 -30.5v0v0v0v-342v0v0q0 -18 12.5 -30.5t30.5 -12.5t30.5 12.5t12.5 30.5v0v0v0v342v0v0q0 18 -12.5 30.5
t-30.5 12.5h-0.5h-0.5v0v0z" />
    <glyph glyph-name="uniE90E" unicode="&#xe90e;" 
d="M724 704q-8 0 -15.5 -3.5t-13.5 -8.5l-427 -427q-6 -6 -9.5 -14t-3.5 -17q0 -18 12.5 -30.5t30.5 -12.5q9 0 17 3.5t14 9.5v0l426 427q6 6 9.5 14t3.5 17q0 17 -12.5 29.5t-29.5 12.5h-1h-1v0v0zM298 705q-17 -1 -29.5 -13.5t-12.5 -29.5v-0.5v-0.5v0v-426
q0 -18 12.5 -30.5t30.5 -12.5h426h0.5h0.5q18 0 30.5 12.5t12.5 30.5q0 17 -12.5 29.5t-30.5 12.5h-0.5h-0.5h-384v384v0.5v0.5q0 18 -12.5 30.5t-29.5 12.5h-1v0v0v0z" />
    <glyph glyph-name="uniE90F" unicode="&#xe90f;" 
d="M298 704q-17 0 -29.5 -12.5t-12.5 -29.5q0 -9 3.5 -17t8.5 -14l427 -426q6 -7 14 -10.5t17 -3.5q18 0 30.5 12.5t12.5 30.5q0 9 -3.5 17t-9.5 14h-1l-426 426q-6 6 -14 9.5t-17 3.5v0v0zM725 705q-18 -1 -30 -13.5t-12 -29.5v-0.5v-0.5v0v-384h-384h-0.5h-0.5
q-18 0 -30.5 -12.5t-12.5 -29.5q0 -18 12.5 -30.5t30.5 -12.5h0.5h0.5h426q18 0 30.5 12.5t12.5 30.5v0v426v0.5v0.5q0 18 -12.5 30.5t-30.5 12.5v0v0v0v0z" />
    <glyph glyph-name="uniE910" unicode="&#xe910;" 
d="M213 491v0v0q-18 0 -30.5 -12.5t-12.5 -30.5t12.5 -30.5t30.5 -12.5v0v0h598v0v0q18 0 30.5 12.5t12.5 30.5t-12.5 30.5t-30.5 12.5v0v0v0h-598zM511 790q-8 -1 -16 -4t-13 -9l-299 -299q-6 -6 -9 -13.5t-3 -16.5t3 -16.5t9 -13.5l299 -299q6 -6 14 -9.5t17 -3.5
q17 0 29.5 12.5t12.5 30.5q0 9 -3.5 17t-9.5 13v0l-268 269l268 268q6 6 9.5 14t3.5 17q0 18 -12.5 30.5t-30.5 12.5h-0.5h-0.5v0v0z" />
    <glyph glyph-name="uniE911" unicode="&#xe911;" 
d="M512 917q-97 0 -182 -37q-86 -37 -149.5 -100.5t-100.5 -149.5q-37 -85 -37 -182t37 -182q37 -86 100.5 -149.5t149.5 -100.5q85 -37 182 -37t182 37q86 37 149.5 100.5t100.5 149.5q37 85 37 182t-37 182q-37 86 -100.5 149.5t-149.5 100.5q-85 37 -182 37v0zM512 832
q80 0 150 -30t122 -82t82 -122t30 -150t-30 -150t-82 -122t-122 -82t-150 -30t-150 30t-122 82t-82 122t-30 150t30 150t82 122t122 82t150 30zM511 662q-8 -1 -16 -4t-13 -9l-171 -171q-6 -6 -9 -13.5t-3 -16.5t3 -16.5t9 -13.5l171 -171q6 -6 14 -9.5t17 -3.5
q17 0 29.5 12.5t12.5 30.5q0 9 -3.5 17t-9.5 13v0l-140 141l140 140q6 6 9.5 14t3.5 17q0 18 -12.5 30.5t-30.5 12.5h-0.5h-0.5v0v0zM341 491v0v0q-18 0 -30.5 -12.5t-12.5 -30.5t12.5 -30.5t30.5 -12.5v0v0h342v0v0q18 0 30.5 12.5t12.5 30.5t-12.5 30.5t-30.5 12.5v0v0v0
h-342z" />
    <glyph glyph-name="uniE912" unicode="&#xe912;" 
d="M213 491v0v0q-18 0 -30.5 -12.5t-12.5 -30.5t12.5 -30.5t30.5 -12.5v0v0h598v0v0q18 0 30.5 12.5t12.5 30.5t-12.5 30.5t-30.5 12.5v0v0v0h-598zM512 790q-18 0 -30.5 -12.5t-12.5 -30.5q0 -9 3.5 -17t9.5 -13l268 -269l-268 -268q-6 -6 -9.5 -14t-3.5 -17
q0 -18 12.5 -30.5t29.5 -12.5q9 0 17 3.5t14 9.5v0l299 299q6 6 9 13.5t3 16.5t-3 16.5t-9 13.5l-299 299q-6 6 -13.5 9.5t-16.5 3.5v0v0z" />
    <glyph glyph-name="uniE913" unicode="&#xe913;" 
d="M512 917q-97 0 -182 -37q-86 -37 -149.5 -100.5t-100.5 -149.5q-37 -85 -37 -182t37 -182q37 -86 100.5 -149.5t149.5 -100.5q85 -37 182 -37t182 37q86 37 149.5 100.5t100.5 149.5q37 85 37 182t-37 182q-37 86 -100.5 149.5t-149.5 100.5q-85 37 -182 37v0zM512 832
q80 0 150 -30t122 -82t82 -122t30 -150t-30 -150t-82 -122t-122 -82t-150 -30t-150 30t-122 82t-82 122t-30 150t30 150t82 122t122 82t150 30zM512 662q-18 0 -30.5 -12.5t-12.5 -30.5q0 -9 3.5 -17t9.5 -13l140 -141l-140 -140q-6 -6 -9.5 -14t-3.5 -17q0 -18 12.5 -30.5
t29.5 -12.5q9 0 17 3.5t14 9.5v0l171 171q6 6 9 13.5t3 16.5t-3 16.5t-9 13.5l-171 171q-6 6 -13.5 9.5t-16.5 3.5v0v0zM341 491v0v0q-18 0 -30.5 -12.5t-12.5 -30.5t12.5 -30.5t30.5 -12.5v0v0h342v0v0q18 0 30.5 12.5t12.5 30.5t-12.5 30.5t-30.5 12.5v0v0v0h-342z" />
    <glyph glyph-name="uniE914" unicode="&#xe914;" 
d="M511 790q-17 0 -29.5 -12.5t-12.5 -30.5v0v0v0v-598v0v0q0 -18 12.5 -30.5t30.5 -12.5t30.5 12.5t12.5 30.5v0v0v0v598v0v0q0 18 -12.5 30.5t-30.5 12.5h-0.5h-0.5v0v0zM511 789q-8 0 -15.5 -3t-13.5 -9l-299 -299q-6 -6 -9.5 -14t-3.5 -17q0 -17 12.5 -29.5t30.5 -12.5
q9 0 17 3.5t13 9.5v0l269 268l268 -268q6 -6 14 -9.5t17 -3.5q18 0 30.5 12.5t12.5 29.5q0 9 -3.5 17t-9.5 14v0l-299 299q-6 6 -13.5 9t-16.5 3h-0.5h-0.5v0v0z" />
    <glyph glyph-name="uniE915" unicode="&#xe915;" 
d="M512 917q-97 0 -182 -37q-86 -37 -149.5 -100.5t-100.5 -149.5q-37 -85 -37 -182t37 -182q37 -86 100.5 -149.5t149.5 -100.5q85 -37 182 -37t182 37q86 37 149.5 100.5t100.5 149.5q37 85 37 182t-37 182q-37 86 -100.5 149.5t-149.5 100.5q-85 37 -182 37v0zM512 832
q80 0 150 -30t122 -82t82 -122t30 -150t-30 -150t-82 -122t-122 -82t-150 -30t-150 30t-122 82t-82 122t-30 150t30 150t82 122t122 82t150 30zM511 661q-8 0 -15.5 -3t-13.5 -9l-171 -171q-6 -6 -9.5 -14t-3.5 -17q0 -17 12.5 -29.5t30.5 -12.5q9 0 17 3.5t13 9.5v0
l141 140l140 -140q6 -6 14 -9.5t17 -3.5q18 0 30.5 12.5t12.5 29.5q0 9 -3.5 17t-9.5 14v0l-171 171q-6 6 -13.5 9t-16.5 3h-0.5h-0.5v0v0zM511 662q-17 0 -29.5 -12.5t-12.5 -30.5v0v0v0v-342v0v0q0 -18 12.5 -30.5t30.5 -12.5t30.5 12.5t12.5 30.5v0v0v0v342v0v0
q0 18 -12.5 30.5t-30.5 12.5h-0.5h-0.5v0v0z" />
    <glyph glyph-name="uniE916" unicode="&#xe916;" 
d="M298 704q-17 0 -29.5 -12.5t-12.5 -29.5q0 -9 3.5 -17t8.5 -14l427 -426q6 -7 14 -10.5t17 -3.5q18 0 30.5 12.5t12.5 30.5q0 9 -3.5 17t-9.5 14h-1l-426 426q-6 6 -14 9.5t-17 3.5v0v0zM299 704q-18 0 -30.5 -12.5t-12.5 -30.5v0v-426v-0.5v-0.5q0 -18 12.5 -30.5
t30.5 -12.5q17 0 29.5 12.5t12.5 30.5v0.5v0.5v0v384h384h0.5h0.5q18 0 30.5 12.5t12.5 29.5q0 18 -12.5 30.5t-30.5 12.5h-0.5h-0.5v0h-426z" />
    <glyph glyph-name="uniE917" unicode="&#xe917;" 
d="M724 704q-8 0 -15.5 -3.5t-13.5 -8.5l-427 -427q-6 -6 -9.5 -14t-3.5 -17q0 -18 12.5 -30.5t30.5 -12.5q9 0 17 3.5t14 9.5v0l426 427q6 6 9.5 14t3.5 17q0 17 -12.5 29.5t-29.5 12.5h-1h-1v0v0zM299 704h-0.5h-0.5q-18 0 -30.5 -12.5t-12.5 -30.5q0 -17 12.5 -29.5
t30.5 -12.5h0.5h0.5h384v-384v-0.5v-0.5q0 -18 12.5 -30.5t29.5 -12.5q18 0 30.5 12.5t12.5 30.5v0.5v0.5v0v426q0 18 -12.5 30.5t-30.5 12.5v0h-426z" />
    <glyph glyph-name="uniE918" unicode="&#xe918;" 
d="M512 661q-44 0 -83 -17q-39 -16 -68 -45t-45 -68q-17 -39 -17 -83t17 -83q16 -39 45 -68t68 -45q39 -17 83 -17t83 17q39 16 68 45t45 68q17 39 17 83t-17 83q-16 39 -45 68t-68 45q-39 17 -83 17v0zM512 576q53 0 90.5 -37.5t37.5 -90.5t-37.5 -90.5t-90.5 -37.5
t-90.5 37.5t-37.5 90.5t37.5 90.5t90.5 37.5zM470 916q-57 -5 -111 -23q-55 -18 -104.5 -50t-90.5 -79q-42 -47 -73 -108q-40 -83 -48 -164q-7 -82 11.5 -156.5t60.5 -138.5q41 -64 99 -112q58 -47 129 -75q71 -29 147.5 -33t155.5 19q78 23 151 79q8 6 13 15t5 20
q0 18 -12.5 30.5t-30.5 12.5q-7 0 -14 -2.5t-13 -7.5v0q-61 -47 -125 -66q-65 -20 -127 -16.5t-120 27.5q-57 24 -105 63q-48 40 -82 91q-35 52 -50 112.5t-9 127.5t41 136q34 69 83 115t106.5 70.5t119.5 28.5t122 -10q61 -14 114 -45q54 -31 94.5 -78.5t64.5 -110.5
t24 -140v-43q0 -24 -7 -39t-19 -25q-11 -10 -26.5 -15.5t-32.5 -5.5t-33 5.5t-27 15.5t-18.5 25t-7.5 39v214v0v0q0 18 -12.5 30.5t-29.5 12.5q-18 0 -30.5 -12.5t-12.5 -30.5v0v0v0v-214q0 -40 15 -73t39 -55q25 -21 55.5 -31.5t61.5 -10.5t61 10.5t55 31.5q25 22 39.5 55
t14.5 73v43q0 92 -29 168q-29 77 -79 135.5t-116 97.5t-138 56q-37 8 -74.5 11t-74.5 0v0z" />
    <glyph glyph-name="uniE919" unicode="&#xe919;" 
d="M512 960q-71 0 -133 -27t-108.5 -73.5t-72.5 -108.5q-27 -62 -27 -132q0 -71 27 -133q26 -62 72.5 -108.5t108.5 -73.5t133 -27t133 27t108.5 73.5t72.5 108.5q27 62 27 133q0 70 -27 132q-26 62 -72.5 108.5t-108.5 73.5t-133 27zM512 875q53 0 100 -20t81.5 -55
t54.5 -81q20 -47 20 -100q0 -54 -20 -100q-20 -47 -54.5 -81.5t-81.5 -54.5t-100 -20t-100 20t-81.5 54.5t-54.5 81.5q-20 46 -20 100q0 53 20 100q20 46 54.5 81t81.5 55t100 20zM672 411q-17 -1 -29 -13t-12 -30v-2.5v-3.5v0l40 -301l-137 82q-5 3 -10.5 4.5t-11.5 1.5
t-11.5 -1.5t-10.5 -4.5v0l-137 -82l40 301v2.5v3.5q0 18 -12.5 30.5t-30.5 12.5q-16 0 -28 -11t-14 -27v0l-52 -389v-2.5v-2.5q0 -18 12.5 -30.5t30.5 -12.5q6 0 11.5 1.5t10.5 4.5v0l191 115l191 -115q5 -3 10.5 -4.5t11.5 -1.5q18 0 30.5 12.5t12.5 30.5v2.5v2.5v0
l-52 389q-2 16 -14 27t-28 11h-1.5h-1.5h1v0z" />
    <glyph glyph-name="uniE91A" unicode="&#xe91a;" 
d="M511 577q-17 -1 -29.5 -13.5t-12.5 -29.5v-0.5v-0.5v0v-426v-0.5v-0.5q0 -18 12.5 -30.5t30.5 -12.5t30.5 12.5t12.5 30.5v0.5v0.5v0v426v0.5v0.5q0 18 -12.5 30.5t-30.5 12.5h-0.5h-0.5v0v0zM767 833q-17 -1 -29.5 -13.5t-12.5 -29.5v-0.5v-0.5v0v-682v-0.5v-0.5
q0 -18 12.5 -30.5t30.5 -12.5t30.5 12.5t12.5 30.5v0.5v0.5v0v682v0.5v0.5q0 18 -12.5 30.5t-30.5 12.5h-0.5h-0.5v0v0zM255 321q-17 -1 -29.5 -13.5t-12.5 -29.5v-0.5v-0.5v0v-170v-0.5v-0.5q0 -18 12.5 -30.5t30.5 -12.5t30.5 12.5t12.5 30.5v0.5v0.5v0v170v0.5v0.5
q0 18 -12.5 30.5t-30.5 12.5h-0.5h-0.5v0v0z" />
    <glyph glyph-name="uniE91B" unicode="&#xe91b;" 
d="M767 577q-17 -1 -29.5 -13.5t-12.5 -29.5v-0.5v-0.5v0v-426v-0.5v-0.5q0 -18 12.5 -30.5t30.5 -12.5t30.5 12.5t12.5 30.5v0.5v0.5v0v426v0.5v0.5q0 18 -12.5 30.5t-30.5 12.5h-0.5h-0.5v0v0zM511 833q-17 -1 -29.5 -13.5t-12.5 -29.5v-0.5v-0.5v0v-682v-0.5v-0.5
q0 -18 12.5 -30.5t30.5 -12.5t30.5 12.5t12.5 30.5v0.5v0.5v0v682v0.5v0.5q0 18 -12.5 30.5t-30.5 12.5h-0.5h-0.5v0v0zM255 406q-17 0 -29.5 -12.5t-12.5 -30.5v0v0v0v-256v-0.5v-0.5q0 -18 12.5 -30.5t30.5 -12.5t30.5 12.5t12.5 30.5v0.5v0.5v0v256v0v0q0 18 -12.5 30.5
t-30.5 12.5h-0.5h-0.5v0v0z" />
    <glyph glyph-name="uniE91C" unicode="&#xe91c;" 
d="M128 747q-53 0 -90.5 -38t-37.5 -90v-342q0 -52 37.5 -90t90.5 -38h597q53 0 90.5 38t37.5 90v342q0 52 -37.5 90t-90.5 38h-597zM128 661h597q19 0 31 -12t12 -30v-342q0 -18 -12 -30t-31 -12h-597q-18 0 -30.5 12t-12.5 30v342q0 18 12.5 30t30.5 12zM981 534
q-18 0 -30 -12.5t-12 -30.5v0v0v0v-86v0v0q0 -18 12.5 -30.5t29.5 -12.5q18 0 30.5 12.5t12.5 30.5v0v0v0v86v0v0q0 18 -12.5 30.5t-30.5 12.5v0v0v0v0z" />
    <glyph glyph-name="uniE91D" unicode="&#xe91d;" 
d="M128 747q-53 0 -90.5 -38t-37.5 -90v-342q0 -52 37.5 -90t90.5 -38h85h0.5h0.5q18 0 30.5 12.5t12.5 30.5t-12.5 30.5t-30.5 12.5h-0.5h-0.5h-85q-18 0 -30.5 12t-12.5 30v342q0 18 12.5 30t30.5 12h136h0.5h0.5q17 0 29.5 12.5t12.5 30.5t-12.5 30.5t-29.5 12.5h-0.5
h-0.5v0h-136zM640 747v0h-1q-17 0 -29.5 -12.5t-12.5 -30.5t12.5 -30.5t29.5 -12.5h1v0h85q18 0 30.5 -12t12.5 -30v-342q0 -18 -12.5 -30t-30.5 -12h-136v0v0q-18 0 -30.5 -12.5t-12.5 -30.5t12.5 -30.5t30.5 -12.5v0v0h136q53 0 90.5 38t37.5 90v342q0 52 -37.5 90
t-90.5 38h-85zM981 534q-18 0 -30 -12.5t-12 -30.5v0v0v0v-86v0v0q0 -18 12.5 -30.5t29.5 -12.5q18 0 30.5 12.5t12.5 30.5v0v0v0v86v0v0q0 18 -12.5 30.5t-30.5 12.5v0v0v0v0zM469 747q-11 0 -20.5 -5.5t-14.5 -13.5v0l-171 -256q-3 -5 -5 -11t-2 -13q0 -18 12.5 -30.5
t30.5 -12.5h176l-127 -189q-3 -5 -5 -11.5t-2 -13.5q0 -17 12.5 -29.5t30.5 -12.5q11 0 20.5 5t14.5 14v0l171 256q4 5 5.5 11t1.5 13q0 18 -12.5 30.5t-29.5 12.5h-177l127 189q3 5 5 11.5t2 13.5q0 17 -12.5 29.5t-29.5 12.5h-1h-1v0h1z" />
    <glyph glyph-name="uniE91E" unicode="&#xe91e;" 
d="M512 917q-62 0 -116 -23q-54 -24 -95 -64.5t-64 -94.5q-24 -55 -24 -116q0 -108 -18.5 -176.5t-39.5 -107.5q-22 -39 -36.5 -52l-14.5 -13q-8 -6 -13.5 -15t-5.5 -20q0 -18 12.5 -30.5t30.5 -12.5h768q18 0 30.5 12.5t12.5 30.5q0 11 -5.5 20t-13.5 15v0l-14.5 13
t-36.5 52q-21 39 -39.5 107.5t-18.5 176.5v0v0q0 5 -1 9.5t-3 8.5v-1q-4 59 -28 110t-63.5 89t-92.5 60q-52 22 -111 22v0zM512 832q44 0 83 -17q39 -16 68 -45t46 -68q16 -39 16 -83v-0.5v-0.5q0 -2 0.5 -4.5t0.5 -4.5v0q1 -56 7 -103t15 -86t21 -71q13 -31 26 -55
q4 -8 6.5 -9t6.5 -8h-592q4 7 6.5 8t6.5 9q14 25 26 57q13 32 22.5 72t15.5 89q6 48 6 107q0 44 16 83q17 39 46 68t68 45q39 17 83 17v0zM436 107q-17 -1 -29 -13t-12 -29q0 -7 1.5 -12.5t4.5 -10.5v1q36 -63 111 -63t111 63q2 4 4 9.5t2 11.5q0 18 -12.5 30.5t-30.5 12.5
q-12 0 -21.5 -6t-15.5 -15v-1q-13 -22 -37 -22t-37 22q-6 10 -15.5 16t-21.5 6h-1h-1v0v0z" />
    <glyph glyph-name="uniE91F" unicode="&#xe91f;" 
d="M436 107q-17 -1 -29 -13t-12 -29q0 -7 1.5 -12.5t4.5 -10.5v1q36 -63 111 -63t111 63q2 4 4 9.5t2 11.5q0 18 -12.5 30.5t-30.5 12.5q-12 0 -21.5 -6t-15.5 -15v-1q-13 -22 -37 -22t-37 22q-6 10 -15.5 16t-21.5 6h-1h-1v0v0zM768 662v0v0q-18 0 -30.5 -12.5t-12.5 -30.5
v0q-1 -57 6.5 -113.5t22.5 -111.5q3 -14 14.5 -23.5t26.5 -9.5q18 0 30.5 12.5t12.5 30.5q0 3 -0.5 6.5t-1.5 6.5v0q-13 49 -19.5 99.5t-5.5 101.5v0.5v0.5q0 18 -12.5 30.5t-30.5 12.5v0v0zM267 736q-15 0 -26 -8.5t-15 -21.5v0q-6 -22 -9.5 -43.5t-3.5 -43.5
q0 -108 -18.5 -176.5t-39.5 -107.5q-22 -39 -36.5 -52l-14.5 -13q-8 -6 -13.5 -15t-5.5 -20q0 -18 12.5 -30.5t30.5 -12.5h597h0.5h0.5q18 0 30.5 12.5t12.5 30.5q0 17 -12.5 29.5t-30.5 12.5h-0.5h-0.5h-509q4 7 6.5 8t6.5 9q14 25 26 57q13 32 22.5 72t15.5 89q6 48 6 107
v0v0v0v0v0q0 15 2 30.5t7 30.5q1 3 1.5 6.5t0.5 7.5q0 17 -12.5 29.5t-30.5 12.5v0v0v0v0zM502 917q-40 -1 -79.5 -13t-76.5 -36q-9 -6 -14 -15.5t-5 -20.5q0 -18 12.5 -30.5t29.5 -12.5q7 0 13.5 2t11.5 6v0q54 35 112 37q59 1 107.5 -25.5t80.5 -75.5q31 -49 31 -114v-0.5
v-0.5q0 -18 12.5 -30.5t30.5 -12.5t30.5 12.5t12.5 30.5v0v1v0q0 66 -26 122q-26 55 -69 95t-99 61q-56 22 -115 20v0zM42 960q-17 0 -29.5 -12.5t-12.5 -29.5q0 -9 3.5 -17t8.5 -14l939 -938q6 -7 14 -10.5t17 -3.5q18 0 30.5 12.5t12.5 30.5q0 9 -3.5 17t-9.5 14h-1
l-938 939q-6 5 -14 8.5t-17 3.5v0v0z" />
    <glyph glyph-name="uniE920" unicode="&#xe920;" 
d="M511 960q-17 0 -29.5 -12.5t-12.5 -30.5v0v0v0v-366l-161 162q-6 6 -14 9.5t-17 3.5q-18 0 -30.5 -12.5t-12.5 -30.5q0 -9 3.5 -17t9.5 -13v0l205 -205l-205 -204q-6 -6 -9.5 -14t-3.5 -17q0 -18 12.5 -30.5t30.5 -12.5q9 0 17 3.5t13 9.5v0l162 162v-366
q0 -18 12.5 -30.5t30.5 -12.5q9 0 16.5 3.5t13.5 8.5l235 235q6 6 9 13.5t3 16.5t-3 17t-9 13l-205 205l205 204q6 6 9 14t3 17t-3 16.5t-9 13.5l-235 235q-6 5 -13.5 8.5t-16.5 3.5h-0.5h-0.5v0v0zM555 814l131 -131l-131 -132v263zM555 345l131 -132l-131 -131v263z" />
    <glyph glyph-name="uniE921" unicode="&#xe921;" 
d="M256 832q-18 0 -30.5 -12.5t-12.5 -30.5v0v-341q0 -18 12.5 -30.5t30.5 -12.5h341q44 0 83 17t68 46t46 68t17 83t-17 82q-17 39 -46 68t-68 46t-83 17h-341zM299 747h298q54 0 91 -37.5t37 -90.5q0 -54 -37 -91t-91 -37h-298v256zM256 491q-18 0 -30.5 -12.5
t-12.5 -30.5v0v-341q0 -18 12.5 -30.5t30.5 -12.5h384q44 0 83 17t68 46t45 68q17 38 17 82t-17 83q-16 39 -45 68t-68 46t-83 17h-384zM299 405h341q53 0 90.5 -37t37.5 -91q0 -53 -37.5 -90.5t-90.5 -37.5h-341v256z" />
    <glyph glyph-name="uniE922" unicode="&#xe922;" 
d="M277 277q-61 0 -105 -44t-44 -105v0v-1q0 -17 12.5 -29.5t30.5 -12.5q17 0 29.5 12.5t12.5 29.5v1v0v0q0 27 18.5 45.5t45.5 18.5h576h0.5h0.5q18 0 30.5 12.5t12.5 30.5q0 17 -12.5 29.5t-30.5 12.5h-0.5h-0.5v0h-576zM277 917q-61 0 -105 -44t-44 -105v-640
q0 -61 44 -105t105 -44h576q18 0 30.5 12.5t12.5 29.5v0v854q0 17 -12.5 29.5t-30.5 12.5v0h-576zM277 832h534v-768h-534q-27 0 -45.5 18.5t-18.5 45.5v640q0 27 18.5 45.5t45.5 18.5v0z" />
    <glyph glyph-name="uniE923" unicode="&#xe923;" 
d="M299 875q-53 0 -90.5 -38t-37.5 -90v-683v0v0q0 -18 12.5 -30.5t29.5 -12.5q7 0 13.5 2.5t11.5 5.5v0l274 196l274 -196q5 -3 11.5 -5.5t13.5 -2.5q17 0 29.5 12.5t12.5 30.5v0v0v0v683q0 52 -37.5 90t-90.5 38h-426zM299 789h426q18 0 30.5 -12t12.5 -30v-600l-231 165
q-5 4 -11.5 6t-13.5 2t-13.5 -2t-11.5 -6v0l-231 -165v600q0 18 12.5 30t30.5 12v0z" />
    <glyph glyph-name="uniE924" unicode="&#xe924;" 
d="M85 875q-17 0 -29.5 -12.5t-12.5 -30.5v0v-640q0 -18 12.5 -30.5t29.5 -12.5h299q36 0 60.5 -24.5t24.5 -60.5q1 -17 13 -29.5t30 -12.5t30 12.5t13 29.5v597q0 44 -17 83t-46 68t-68 46t-83 17h-256zM128 789h213q54 0 91 -37t37 -91v-453q-19 12 -40 19.5t-45 7.5h-256
v554zM683 875q-44 0 -83 -17t-68 -46t-46 -68t-17 -83v-597q1 -17 13 -29.5t30 -12.5t30 12.5t13 29.5v0q0 36 24.5 60.5t60.5 24.5h299q17 0 29.5 12.5t12.5 30.5v0v640q0 18 -12.5 30.5t-29.5 12.5v0h-256zM683 789h213v-554h-256q-24 0 -45 -7.5t-40 -19.5v453
q0 54 37 91t91 37v0z" />
    <glyph glyph-name="uniE925" unicode="&#xe925;" 
d="M512 917q-17 0 -33 -4t-31 -13l-298 -170l-1 -1v0v0q-29 -17 -46.5 -46.5t-17.5 -63.5v0v0v0v0v0v-342v0v0v0v0v0q0 -34 17.5 -63.5t46.5 -46.5v0v0l1 -1l298 -170q30 -17 64 -17t64 17l298 170l1 1v0v0q29 17 46.5 46.5t17.5 63.5v0v0v0v342v0v0v0v0v0q0 34 -17.5 63.5
t-46.5 46.5v0v0h-1l-298 171q-15 9 -31 13t-33 4v0zM491 826q10 6 21 6t21 -6v0v0h1l298 -170q10 -6 15.5 -16t5.5 -21v-342q0 -11 -5.5 -21t-15.5 -15l-298 -171h-1v0v0q-10 -6 -21 -6t-21 6v0v0v0l-299 171q-10 5 -15.5 15t-5.5 21v342q0 11 5.5 21t15.5 15l299 171v0v0v0
v0zM141 706h-1.5h-0.5q-18 0 -30.5 -12.5t-12.5 -30.5q0 -12 6 -21.5t16 -15.5v0l373 -215q4 -3 9.5 -4.5t11.5 -1.5t11.5 1.5t10.5 4.5h-1l373 215q9 6 15 15.5t6 21.5q0 18 -12.5 30.5t-30.5 12.5q-5 0 -10.5 -1.5t-10.5 -4.5v0l-351 -203l-351 203q-4 3 -9.5 4.5
t-10.5 1.5v0v0zM511 491q-17 0 -29.5 -12.5t-12.5 -29.5v-1v0v0v-430v-0.5v-0.5q0 -17 12.5 -29.5t30.5 -12.5t30.5 12.5t12.5 29.5v0.5v0.5v0v430v0v1q0 17 -12.5 29.5t-30.5 12.5h-0.5h-0.5v0v0z" />
    <glyph glyph-name="uniE926" unicode="&#xe926;" 
d="M171 704q-53 0 -90.5 -37.5t-37.5 -90.5v-427q0 -52 37.5 -90t90.5 -38h682q53 0 90.5 38t37.5 90v427q0 53 -37.5 90.5t-90.5 37.5h-682zM171 619h682q19 0 31 -12.5t12 -30.5v-427q0 -18 -12 -30t-31 -12h-682q-19 0 -31 12t-12 30v427q0 18 12 30.5t31 12.5v0z
M427 875q-53 0 -90.5 -38t-37.5 -90v-683v0v-1q0 -17 12.5 -29.5t29.5 -12.5q18 0 30.5 12.5t12.5 29.5v1v0v0v683q0 18 12.5 30t30.5 12h170q18 0 30.5 -12t12.5 -30v-683v0v-1q0 -17 12.5 -29.5t30.5 -12.5q17 0 29.5 12.5t12.5 29.5v1v0v0v683q0 52 -37.5 90t-90.5 38
h-170z" />
    <glyph glyph-name="uniE927" unicode="&#xe927;" 
d="M213 832q-52 0 -90 -37.5t-38 -90.5v-597q0 -53 38 -90.5t90 -37.5h598q52 0 90 37.5t38 90.5v597q0 53 -38 90.5t-90 37.5h-598zM213 747h598q18 0 30 -12.5t12 -30.5v-597q0 -19 -12 -31t-30 -12h-598q-18 0 -30 12t-12 31v597q0 18 12 30.5t30 12.5v0zM682 918
q-17 0 -29.5 -12.5t-12.5 -30.5v0v0v0v-171v0v-1q0 -17 12.5 -29.5t30.5 -12.5q17 0 29.5 12.5t12.5 29.5v1v0v0v171v0v0q0 18 -12.5 30.5t-29.5 12.5h-1v0v0v0zM341 918q-18 0 -30 -12.5t-12 -30.5v0v0v0v-171v0v-1q0 -17 12.5 -29.5t29.5 -12.5q18 0 30.5 12.5t12.5 29.5
v1v0v0v171v0v0q0 18 -12.5 30.5t-30.5 12.5v0v0v0v0zM128 576v0h-1q-17 0 -29.5 -12.5t-12.5 -30.5q0 -17 12.5 -29.5t29.5 -12.5h1v0h768v0h1q17 0 29.5 12.5t12.5 29.5q0 18 -12.5 30.5t-29.5 12.5h-1v0v0h-768z" />
    <glyph glyph-name="uniE928" unicode="&#xe928;" 
d="M384 875q-11 0 -20.5 -5.5t-14.5 -13.5v0l-73 -109h-148q-53 0 -90.5 -38t-37.5 -90v-470q0 -52 37.5 -90t90.5 -38h768q53 0 90.5 38t37.5 90v470q0 52 -37.5 90t-90.5 38h-148l-72 109q-6 8 -15.5 13.5t-20.5 5.5v0h-256zM407 789h210l73 -109q6 -8 15 -13.5t20 -5.5
h171q18 0 30.5 -12t12.5 -30v-470q0 -18 -12.5 -30t-30.5 -12h-768q-18 0 -30.5 12t-12.5 30v470q0 18 12.5 30t30.5 12h171q11 0 20 5.5t15 13.5v0zM512 619q-44 0 -83 -17t-68 -46t-45 -68q-17 -39 -17 -83t17 -82q16 -39 45 -68t68 -46t83 -17t83 17t68 46t45 68
q17 38 17 82t-17 83q-16 39 -45 68t-68 46t-83 17zM512 533q53 0 90.5 -37t37.5 -91q0 -53 -37.5 -90.5t-90.5 -37.5t-90.5 37.5t-37.5 90.5q0 54 37.5 91t90.5 37z" />
    <glyph glyph-name="uniE929" unicode="&#xe929;" 
d="M42 960q-17 0 -29.5 -12.5t-12.5 -29.5q0 -9 3.5 -17t8.5 -14l939 -938q6 -7 14 -10.5t17 -3.5q18 0 30.5 12.5t12.5 30.5q0 9 -3.5 17t-9.5 14h-1l-938 939q-6 5 -14 8.5t-17 3.5v0v0zM384 875v0h-1q-17 0 -29.5 -12.5t-12.5 -30.5t12.5 -30.5t29.5 -12.5h1v0h233
l73 -109q6 -8 15 -13.5t20 -5.5h171q18 0 30.5 -12t12.5 -30v-399v0v0q0 -18 12.5 -30.5t29.5 -12.5q18 0 30.5 12.5t12.5 30.5v0v0v0v399q0 52 -37.5 90t-90.5 38h-148l-72 109q-6 8 -15.5 13.5t-20.5 5.5v0h-256zM128 747q-53 0 -90.5 -38t-37.5 -90v-470q0 -52 37.5 -90
t90.5 -38h768v0h1q17 0 29.5 12.5t12.5 30.5t-12.5 30.5t-29.5 12.5h-1v0h-768q-18 0 -30.5 12t-12.5 30v470q0 18 12.5 30t30.5 12h128v0h1q17 0 29.5 12.5t12.5 30.5t-12.5 30.5t-29.5 12.5h-1v0v0h-128zM413 588q-6 0 -12 -2t-10 -6v0q-41 -28 -64 -69q-24 -41 -28 -86.5
t11 -90.5t50 -80q35 -36 80 -51t90.5 -10.5t87.5 27.5q41 23 69 64q4 5 6 11.5t2 13.5q0 18 -12.5 30.5t-29.5 12.5q-12 0 -21 -5.5t-15 -14.5v0q-35 -50 -94 -55.5t-102 37.5t-37.5 102.5t55.5 93.5q8 6 13.5 15.5t5.5 20.5q0 17 -12.5 29.5t-30.5 12.5h-0.5h-1.5v0v0z" />
    <glyph glyph-name="uniE92A" unicode="&#xe92a;" 
d="M171 832q-53 0 -90.5 -37.5t-37.5 -90.5v-85v-0.5v-0.5q0 -18 12.5 -30.5t29.5 -12.5q18 0 30.5 12.5t12.5 30.5v0.5v0.5v0v85q0 18 12.5 30.5t30.5 12.5h682q18 0 30.5 -12.5t12.5 -30.5v-512q0 -18 -12.5 -30.5t-30.5 -12.5h-256v0v0q-18 0 -30.5 -12.5t-12.5 -29.5
q0 -18 12.5 -30.5t30.5 -12.5v0v0h256q53 0 90.5 37.5t37.5 90.5v512q0 53 -37.5 90.5t-90.5 37.5h-682zM86 489h-0.5h-0.5q-17 0 -29.5 -12.5t-12.5 -30.5q0 -17 10.5 -29t26.5 -13l1 -1q59 -6 111 -32q52 -25 92 -65t66 -92q26 -53 32 -112q1 -17 13.5 -28.5t29.5 -11.5
t29.5 12.5t12.5 30.5v3.5v3.5v-1q-8 75 -40 140t-82.5 115t-115.5 82t-139 40q-1 0 -2 0.5t-2 0.5v0v0zM85 316v0v0q-18 0 -30.5 -12.5t-12.5 -30.5q0 -15 10 -27t25 -15v0q50 -10 86.5 -46t46.5 -87q3 -15 14.5 -25t27.5 -10q18 0 30.5 12.5t12.5 29.5q0 3 -0.5 5.5
t-1.5 4.5v0q-15 76 -69.5 130t-129.5 70q-2 0 -4 0.5t-5 0.5v0v0zM85 149v0v0q-18 0 -30.5 -12.5t-12.5 -29.5q0 -18 12.5 -30.5t30.5 -12.5v0v0h1v0v0q18 0 30.5 12.5t12.5 30.5q0 17 -12.5 29.5t-30.5 12.5v0v0v0h-1z" />
    <glyph glyph-name="uniE92B" unicode="&#xe92b;" 
d="M852 747q-8 0 -15.5 -3.5t-13.5 -9.5l-439 -439l-183 183q-6 6 -14 9.5t-17 3.5q-18 0 -30.5 -12.5t-12.5 -29.5q0 -9 3.5 -17t9.5 -14v0l214 -213q6 -6 13.5 -9.5t16.5 -3.5t16.5 3.5t13.5 8.5l469 470q6 6 9.5 13.5t3.5 16.5q0 18 -12.5 30.5t-29.5 12.5h-1h-1v0v0z
" />
    <glyph glyph-name="uniE92C" unicode="&#xe92c;" 
d="M546 918q-58 4 -113 -5q-55 -10 -105.5 -32t-93.5 -54q-44 -33 -79 -74q-46 -54 -76 -121q-29 -68 -36 -141t11 -149q17 -77 64 -149q47 -73 110 -120q62 -47 132 -70.5t143 -23.5q73 -1 142 19t130 61q61 40 107 97.5t72 131.5q27 73 27 160v39v0.5v0.5q0 18 -12.5 30.5
t-29.5 12.5q-18 0 -30.5 -12.5t-12.5 -30.5v-0.5v-0.5v0v-39q0 -73 -22 -133q-21 -60 -58.5 -107t-87.5 -79t-107 -49t-116 -17q-60 0 -116.5 19t-108.5 57q-51 39 -90 100q-40 61 -54 124q-15 62 -9 121.5t30 113.5q25 55 63 100q39 45 88 77q50 33 108 48t122 10
q64 -4 130 -34q4 -2 9 -3t10 -1q17 0 29.5 12.5t12.5 30.5q0 13 -7 23.5t-19 15.5v0q-40 18 -79 28t-78 13v0zM938 832q-9 0 -16.5 -3.5t-12.5 -8.5h-1l-396 -397l-98 97q-6 6 -14 10t-17 4q-17 0 -29.5 -12.5t-12.5 -30.5q0 -9 3.5 -17t9.5 -14v0l128 -128q6 -6 13.5 -9
t16.5 -3t16.5 3t13.5 9v0l427 427q6 6 9.5 14t3.5 17q0 17 -12.5 29.5t-30.5 12.5h-0.5h-0.5v0v0z" />
    <glyph glyph-name="uniE92D" unicode="&#xe92d;" 
d="M938 832q-9 0 -16.5 -3.5t-12.5 -8.5l-397 -397l-98 98q-6 6 -14 9.5t-17 3.5q-17 0 -29.5 -12.5t-12.5 -30.5q0 -9 3.5 -17t9.5 -13v0l128 -128q6 -6 13.5 -9.5t16.5 -3.5t16.5 3.5t13.5 8.5l427 427q6 6 9.5 14t3.5 17q0 17 -12.5 29.5t-30.5 12.5h-0.5h-0.5v0v0z
M213 875q-52 0 -90 -38t-38 -90v-598q0 -52 38 -90t90 -38h598q52 0 90 38t38 90v299v0v1q0 17 -12.5 29.5t-30.5 12.5t-30.5 -12.5t-12.5 -29.5v-1v0v0v-299q0 -18 -12 -30t-30 -12h-598q-18 0 -30 12t-12 30v598q0 18 12 30t30 12h470v0v0q18 0 30.5 12.5t12.5 30.5
t-12.5 30.5t-30.5 12.5v0v0v0h-470z" />
    <glyph glyph-name="uniE92E" unicode="&#xe92e;" 
d="M256 619q-18 0 -30.5 -12.5t-12.5 -30.5q0 -9 3.5 -16.5t9.5 -13.5l256 -256q6 -6 13.5 -9.5t16.5 -3.5t16.5 3.5t13.5 9.5l256 256q6 6 9.5 14t3.5 17q0 17 -12.5 29.5t-29.5 12.5q-9 0 -17 -3.5t-14 -9.5v0l-226 -226l-226 226q-6 6 -13.5 9.5t-16.5 3.5v0v0z" />
    <glyph glyph-name="uniE92F" unicode="&#xe92f;" 
d="M639 747q-8 0 -16 -3.5t-13 -9.5l-256 -256q-6 -6 -9.5 -13.5t-3.5 -16.5t3.5 -16.5t9.5 -13.5l256 -256q6 -6 14 -9.5t17 -3.5q17 0 29.5 12.5t12.5 29.5q0 9 -3.5 17t-9.5 14v0l-226 226l226 226q6 6 9.5 13.5t3.5 16.5q0 18 -12.5 30.5t-30.5 12.5h-0.5h-0.5v0v0z" />
    <glyph glyph-name="uniE930" unicode="&#xe930;" 
d="M384 747q-18 0 -30.5 -12.5t-12.5 -30.5q0 -9 3.5 -16.5t9.5 -13.5l226 -226l-226 -226q-6 -6 -9.5 -14t-3.5 -17q0 -17 12.5 -29.5t29.5 -12.5q9 0 17 3.5t14 9.5v0l256 256q6 6 9.5 13.5t3.5 16.5t-3.5 16.5t-9.5 13.5l-256 256q-6 6 -13.5 9.5t-16.5 3.5v0v0z" />
    <glyph glyph-name="uniE931" unicode="&#xe931;" 
d="M298 448q-17 0 -29.5 -12.5t-12.5 -29.5q0 -9 3.5 -17t8.5 -14l214 -213q6 -6 13.5 -9.5t16.5 -3.5t16.5 3.5t13.5 9.5l213 213q7 6 10.5 14t3.5 17q0 18 -12.5 30.5t-30.5 12.5q-9 0 -17 -3.5t-14 -9.5v0l-183 -184l-183 184q-6 5 -14 8.5t-17 3.5v0v0zM298 747
q-17 0 -29.5 -12.5t-12.5 -30.5q0 -9 3.5 -16.5t8.5 -13.5l214 -213q6 -6 13.5 -9.5t16.5 -3.5t16.5 3.5t13.5 8.5l213 214q7 6 10.5 14t3.5 17q0 17 -12.5 29.5t-30.5 12.5q-9 0 -17 -3.5t-14 -9.5v0l-183 -183l-183 183q-6 6 -14 9.5t-17 3.5v0v0z" />
    <glyph glyph-name="uniE932" unicode="&#xe932;" 
d="M468 704q-8 0 -15.5 -3.5t-13.5 -8.5l-213 -214q-6 -6 -9.5 -13.5t-3.5 -16.5t3.5 -16.5t9.5 -13.5l213 -213q6 -7 14 -10.5t17 -3.5q18 0 30.5 12.5t12.5 30.5q0 9 -3.5 17t-9.5 14v0l-184 183l184 183q5 6 8.5 14t3.5 17q0 17 -12.5 29.5t-29.5 12.5h-1h-1h1h-1z
M767 704q-8 0 -16 -3.5t-13 -8.5l-213 -214q-6 -6 -9.5 -13.5t-3.5 -16.5t3.5 -16.5t9.5 -13.5l213 -213q6 -7 14 -10.5t17 -3.5q17 0 29.5 12.5t12.5 30.5q0 9 -3.5 17t-9.5 14v0l-183 183l183 183q6 6 9.5 14t3.5 17q0 17 -12.5 29.5t-30.5 12.5h-0.5h-0.5v0v0z" />
    <glyph glyph-name="uniE933" unicode="&#xe933;" 
d="M554 704q-17 0 -29.5 -12.5t-12.5 -29.5q0 -9 3.5 -17t8.5 -14l184 -183l-184 -183q-6 -6 -9.5 -14t-3.5 -17q0 -18 12.5 -30.5t30.5 -12.5q9 0 17 3.5t14 9.5v0l213 214q6 6 9.5 13.5t3.5 16.5t-3.5 16.5t-9.5 13.5l-213 213q-6 6 -14 9.5t-17 3.5v0v0zM256 704
q-18 0 -30.5 -12.5t-12.5 -29.5q0 -9 3.5 -17t9.5 -14l183 -183l-183 -183q-6 -6 -9.5 -14t-3.5 -17q0 -18 12.5 -30.5t29.5 -12.5q9 0 17 3.5t14 9.5v0l213 214q6 6 9.5 13.5t3.5 16.5t-3.5 16.5t-9.5 13.5l-213 213q-6 6 -13.5 9.5t-16.5 3.5v0v0z" />
    <glyph glyph-name="uniE934" unicode="&#xe934;" 
d="M511 747q-8 0 -15.5 -3.5t-13.5 -9.5l-214 -213q-6 -6 -9.5 -14t-3.5 -17q0 -18 12.5 -30.5t30.5 -12.5q9 0 17 3.5t14 9.5v0l183 184l183 -184q6 -6 14 -9.5t17 -3.5q18 0 30.5 12.5t12.5 30.5q0 9 -3.5 17t-9.5 14v0l-214 213q-6 6 -13.5 9.5t-16.5 3.5h-0.5h-0.5v0v0z
M511 448q-8 0 -15.5 -3.5t-13.5 -8.5l-214 -214q-6 -6 -9.5 -14t-3.5 -17q0 -17 12.5 -29.5t30.5 -12.5q9 0 17 3.5t14 9.5v0l183 183l183 -183q6 -6 14 -9.5t17 -3.5q18 0 30.5 12.5t12.5 29.5q0 9 -3.5 17t-9.5 14v0l-214 213q-6 6 -13.5 9.5t-16.5 3.5h-0.5h-0.5v0v0z
" />
    <glyph glyph-name="uniE935" unicode="&#xe935;" 
d="M511 619q-8 0 -15.5 -3.5t-13.5 -9.5l-256 -256q-6 -6 -9.5 -14t-3.5 -17q0 -17 12.5 -29.5t29.5 -12.5q9 0 17 3.5t14 9.5v0l226 226l226 -226q6 -6 14 -9.5t17 -3.5q17 0 29.5 12.5t12.5 29.5q0 9 -3.5 17t-9.5 14v0l-256 256q-6 6 -13.5 9.5t-16.5 3.5h-0.5h-0.5v0v0z
" />
    <glyph glyph-name="uniE936" unicode="&#xe936;" 
d="M512 917q-97 0 -182 -37q-86 -37 -149.5 -100.5t-100.5 -149.5q-37 -85 -37 -182t37 -182q37 -86 100.5 -149.5t149.5 -100.5q85 -37 182 -37t182 37q86 37 149.5 100.5t100.5 149.5q37 85 37 182t-37 182q-37 86 -100.5 149.5t-149.5 100.5q-85 37 -182 37v0zM512 832
q80 0 150 -30t122 -82t82 -122t30 -150t-30 -150t-82 -122t-122 -82t-150 -30t-150 30t-122 82t-82 122t-30 150t30 150t82 122t122 82t150 30zM512 661q-44 0 -83 -17q-39 -16 -68 -45t-45 -68q-17 -39 -17 -83t17 -83q16 -39 45 -68t68 -45q39 -17 83 -17t83 17
q39 16 68 45t45 68q17 39 17 83t-17 83q-16 39 -45 68t-68 45q-39 17 -83 17v0zM512 576q53 0 90.5 -37.5t37.5 -90.5t-37.5 -90.5t-90.5 -37.5t-90.5 37.5t-37.5 90.5t37.5 90.5t90.5 37.5zM512 661v0h-1q-17 0 -29.5 -12.5t-12.5 -29.5q0 -18 12.5 -30.5t29.5 -12.5h1v0
h391h0.5h0.5q18 0 30.5 12.5t12.5 30.5q0 17 -12.5 29.5t-30.5 12.5h-0.5h-0.5v0h-391zM167 745q-18 -1 -29.5 -13.5t-11.5 -29.5q0 -6 1.5 -11.5t4.5 -10.5v0l195 -339q6 -9 16 -15t21 -6q18 0 30.5 12.5t12.5 30.5q0 6 -1.5 11t-4.5 10v0l-196 339q-5 10 -15 16t-22 6
h-0.5h-1.5h1v0zM660 406v0v0q-12 0 -22 -6t-15 -16v0l-196 -339q-2 -4 -3.5 -9.5t-1.5 -11.5q0 -18 12.5 -30.5t29.5 -12.5q12 0 22 6t15 15v1l196 338q2 5 4 10.5t2 11.5q0 18 -12.5 30.5t-30.5 12.5v0v0z" />
    <glyph glyph-name="uniE937" unicode="&#xe937;" 
d="M512 917q-97 0 -182 -37q-86 -37 -149.5 -100.5t-100.5 -149.5q-37 -85 -37 -182t37 -182q37 -86 100.5 -149.5t149.5 -100.5q85 -37 182 -37t182 37q86 37 149.5 100.5t100.5 149.5q37 85 37 182t-37 182q-37 86 -100.5 149.5t-149.5 100.5q-85 37 -182 37v0zM512 832
q80 0 150 -30t122 -82t82 -122t30 -150t-30 -150t-82 -122t-122 -82t-150 -30t-150 30t-122 82t-82 122t-30 150t30 150t82 122t122 82t150 30z" />
    <glyph glyph-name="uniE938" unicode="&#xe938;" 
d="M256 832q-53 0 -90.5 -37.5t-37.5 -90.5v-597q0 -53 37.5 -90.5t90.5 -37.5h512q53 0 90.5 37.5t37.5 90.5v597q0 53 -37.5 90.5t-90.5 37.5h-85h-0.5h-0.5q-18 0 -30.5 -12.5t-12.5 -30.5q0 -17 12.5 -29.5t30.5 -12.5h0.5h0.5h85q18 0 30.5 -12.5t12.5 -30.5v-597
q0 -18 -12.5 -30.5t-30.5 -12.5h-512q-18 0 -30.5 12.5t-12.5 30.5v597q0 18 12.5 30.5t30.5 12.5h85h0.5h0.5q18 0 30.5 12.5t12.5 29.5q0 18 -12.5 30.5t-30.5 12.5h-0.5h-0.5v0h-85zM384 917q-35 0 -60 -25t-25 -60v-85q0 -35 25 -60.5t60 -25.5h256q35 0 60 25.5
t25 60.5v85q0 35 -25 60t-60 25h-256zM384 832h256v-85h-256v85z" />
    <glyph glyph-name="uniE939" unicode="&#xe939;" 
d="M512 917q-97 0 -182 -37q-86 -37 -149.5 -100.5t-100.5 -149.5q-37 -85 -37 -182t37 -182q37 -86 100.5 -149.5t149.5 -100.5q85 -37 182 -37t182 37q86 37 149.5 100.5t100.5 149.5q37 85 37 182t-37 182q-37 86 -100.5 149.5t-149.5 100.5q-85 37 -182 37v0zM512 832
q80 0 150 -30t122 -82t82 -122t30 -150t-30 -150t-82 -122t-122 -82t-150 -30t-150 30t-122 82t-82 122t-30 150t30 150t82 122t122 82t150 30zM511 747q-17 0 -29.5 -12.5t-12.5 -29.5v-1v0v0v-256v0v0q0 -12 6.5 -22.5t17.5 -15.5v0l171 -85q4 -3 8.5 -4t10.5 -1
q17 0 29.5 12.5t12.5 30.5q0 12 -6.5 22t-16.5 16v0l-147 73v230v0v1q0 17 -12.5 29.5t-30.5 12.5h-0.5h-0.5v0v0z" />
    <glyph glyph-name="uniE93A" unicode="&#xe93a;" 
d="M358 830q-39 -2 -77 -12t-73.5 -28.5t-67.5 -44.5q-33 -27 -60 -62q-73 -94 -79 -202q-6 -109 39.5 -201.5t135.5 -154.5q89 -61 208 -61h384q53 0 99 20q47 20 82 55t55 82q20 46 20 99t-20 99q-20 47 -55 82t-82 55q-46 20 -99 20h-26q-23 64 -63 113q-40 48 -91 81
t-110 48t-120 12v0zM365 748q50 3 99 -10q49 -14 90.5 -42.5t72.5 -72.5q31 -43 46 -100q4 -14 15 -23t26 -9v0v0h54q71 0 121 -50t50 -121t-50 -121t-121 -50h-384q-94 0 -164 48q-71 47 -106 118.5t-30 156.5q6 84 64 159q43 56 100 84.5t117 32.5v0z" />
    <glyph glyph-name="uniE93B" unicode="&#xe93b;" 
d="M341 193q-18 -1 -30 -13.5t-12 -29.5v-0.5v-0.5v0v-85v0v-1q0 -17 12.5 -29.5t29.5 -12.5q18 0 30.5 12.5t12.5 29.5v1v0v0v85v0.5v0.5q0 18 -12.5 30.5t-30.5 12.5v0v0v0v0zM341 449q-18 -1 -30 -13.5t-12 -29.5v-0.5v-0.5v0v-85v0v-1q0 -17 12.5 -29.5t29.5 -12.5
q18 0 30.5 12.5t12.5 29.5v1v0v0v85v0.5v0.5q0 18 -12.5 30.5t-30.5 12.5v0v0v0v0zM682 193q-17 -1 -29.5 -13.5t-12.5 -29.5v-0.5v-0.5v0v-85v0v-1q0 -17 12.5 -29.5t30.5 -12.5q17 0 29.5 12.5t12.5 29.5v1v0v0v85v0.5v0.5q0 18 -12.5 30.5t-29.5 12.5h-1v0v0v0zM682 449
q-17 -1 -29.5 -13.5t-12.5 -29.5v-0.5v-0.5v0v-85v0v-1q0 -17 12.5 -29.5t30.5 -12.5q17 0 29.5 12.5t12.5 29.5v1v0v0v85v0.5v0.5q0 18 -12.5 30.5t-29.5 12.5h-1v0v0v0zM511 107q-17 0 -29.5 -12.5t-12.5 -29.5v-1v0v0v-85v-0.5v-0.5q0 -18 12.5 -30.5t30.5 -12.5
t30.5 12.5t12.5 30.5v0.5v0.5v0v85v0v1q0 17 -12.5 29.5t-30.5 12.5h-0.5h-0.5v0v0zM511 363q-17 0 -29.5 -12.5t-12.5 -29.5v-1v0v0v-85v-0.5v-0.5q0 -18 12.5 -30.5t30.5 -12.5t30.5 12.5t12.5 30.5v0.5v0.5v0v85v0v1q0 17 -12.5 29.5t-30.5 12.5h-0.5h-0.5v0v0zM349 958
q-45 -4 -89 -18.5t-85 -41.5q-82 -53 -126 -134t-48 -169t31 -173q36 -85 112 -146q5 -4 12 -6.5t15 -2.5q17 0 29.5 12.5t12.5 29.5q0 10 -4 19t-12 15v0q-60 48 -88 114t-24.5 134t37.5 131q35 63 99 105q65 41 136 47q72 6 135.5 -19t112.5 -77q49 -53 68 -127
q4 -14 15 -23t26 -9v0v0h54q72 0 113.5 -40.5t53.5 -95.5q11 -55 -11 -108.5t-88 -82.5q-12 -5 -19 -16t-7 -24q0 -18 12.5 -30.5t29.5 -12.5q5 0 9.5 1.5t9.5 3.5l-1 -1q47 21 79 53t50 70.5t23 81.5q5 42 -4 82q-8 41 -29 78q-21 36 -53.5 64.5t-74.5 44.5q-42 17 -93 17
v0v0v0v0h-25q-23 63 -63 113q-41 50 -93.5 83t-113.5 48q-61 16 -124 10v0z" />
    <glyph glyph-name="uniE93C" unicode="&#xe93c;" 
d="M418 958q-69 6 -138.5 -12.5t-130.5 -65.5q-82 -63 -118 -153q-36 -89 -29 -180.5t56 -174.5q50 -82 140 -132q4 -3 9.5 -4t10.5 -1q18 0 30.5 12.5t12.5 29.5q0 12 -6 22t-16 16v0q-71 39 -110 103t-44.5 135t23.5 140t93 119t138 60q74 11 141.5 -12.5t119.5 -76.5
q53 -54 73 -132q4 -14 15 -23t26 -9v0v0h54v0v0v0v0v0q81 0 122.5 -46.5t47.5 -107.5t-25 -114.5t-111 -69.5q-15 -3 -24.5 -15t-9.5 -27q0 -18 12.5 -30.5t30.5 -12.5q2 0 4 0.5t4 0.5v0q55 11 95 39q41 28 66.5 66.5t36.5 82.5q10 45 6 89q-5 44 -24 85q-19 42 -52 74
t-78 52q-45 19 -101 19h-25q-20 55 -53 100q-33 44 -75.5 76.5t-93.5 52.5q-50 20 -103 25v0zM554 534q-11 0 -20 -5.5t-15 -14.5v0l-171 -256q-3 -5 -5 -11t-2 -12q0 -18 12.5 -30.5t30.5 -12.5h176l-126 -190q-4 -5 -6 -11t-2 -13q0 -18 12.5 -30.5t30.5 -12.5
q11 0 20.5 5.5t15.5 14.5v0l170 256q4 5 6 11t2 13q0 17 -12.5 29.5t-30.5 12.5h-176l126 190q4 5 6 11t2 13q0 18 -12.5 30.5t-30.5 12.5h-0.5h-0.5v0v0z" />
    <glyph glyph-name="uniE93D" unicode="&#xe93d;" 
d="M413 832v0h-1q-17 0 -29.5 -12.5t-12.5 -30.5q0 -17 11.5 -29t28.5 -13v0q47 -4 90 -23q42 -18 77 -47.5t59 -68.5q25 -39 37 -85q4 -14 15 -23t26 -9h54v0v0v0v0v0q47 0 84 -21t59.5 -55t27.5 -76q5 -43 -14 -86q-1 -3 -2 -7.5t-1 -9.5q0 -18 12.5 -30.5t29.5 -12.5
q14 0 24.5 7.5t15.5 19.5v0q27 63 19 126q-8 64 -42 115t-89 83q-56 32 -124 32h-26q-19 53 -51 97q-32 45 -74 78.5t-93 54.5q-50 21 -107 26h-2h-2v0v0zM212 790q-6 -1 -10.5 -2.5t-9.5 -3.5h1q-65 -36 -108 -86q-43 -51 -65.5 -109t-24.5 -120q-3 -62 12 -120
q16 -58 49 -111q33 -52 81.5 -91t111.5 -62q62 -22 136 -21h383v0v0v0v0v0q22 0 44 4t43 11q12 5 20 16t8 24q0 18 -12.5 30.5t-29.5 12.5q-4 0 -8 -0.5t-7 -2.5v1q-14 -5 -28.5 -8t-29.5 -3h-384v0v0h-0.5h-0.5v0q-59 -1 -108 17q-49 17 -86 47t-62 71t-37 87t-11 94
q2 48 19 92.5t50 83.5q34 40 86 68q10 6 16.5 16t6.5 22q0 18 -12.5 30.5t-30.5 12.5h-1.5h-0.5v0v0zM42 960q-17 0 -29.5 -12.5t-12.5 -29.5q0 -9 3.5 -17t8.5 -14l939 -938q6 -7 14 -10.5t17 -3.5q18 0 30.5 12.5t12.5 30.5q0 9 -3.5 17t-9.5 14h-1l-938 939q-6 5 -14 8.5
t-17 3.5v0v0z" />
    <glyph glyph-name="uniE93E" unicode="&#xe93e;" 
d="M682 449q-17 -1 -29.5 -13.5t-12.5 -29.5v-0.5v-0.5v0v-341v0v-1q0 -17 12.5 -29.5t30.5 -12.5q17 0 29.5 12.5t12.5 29.5v1v0v0v341v0.5v0.5q0 18 -12.5 30.5t-29.5 12.5h-1v0v0v0zM341 449q-18 -1 -30 -13.5t-12 -29.5v-0.5v-0.5v0v-341v0v-1q0 -17 12.5 -29.5
t29.5 -12.5q18 0 30.5 12.5t12.5 29.5v1v0v0v341v0.5v0.5q0 18 -12.5 30.5t-30.5 12.5v0v0v0v0zM511 363q-17 0 -29.5 -12.5t-12.5 -29.5v-1v0v0v-341v-0.5v-0.5q0 -18 12.5 -30.5t30.5 -12.5t30.5 12.5t12.5 30.5v0.5v0.5v0v341v0v1q0 17 -12.5 29.5t-30.5 12.5h-0.5h-0.5
v0v0zM349 958q-45 -4 -89 -18.5t-85 -41.5q-82 -53 -126 -134t-48 -169t31 -173q36 -85 112 -146q5 -4 12 -6.5t15 -2.5q17 0 29.5 12.5t12.5 29.5q0 10 -4 19t-12 15v0q-60 48 -88 114t-24.5 134t37.5 131q35 63 99 105q65 41 136 47q72 6 135.5 -19t112.5 -77
q49 -53 68 -127q4 -14 15 -23t26 -9v0v0h54q72 0 113.5 -40.5t53.5 -95.5q11 -55 -11 -108.5t-88 -82.5q-12 -5 -19 -16t-7 -24q0 -18 12.5 -30.5t29.5 -12.5q5 0 9.5 1.5t9.5 3.5l-1 -1q47 21 79 53t50 70.5t23 81.5q5 42 -4 82q-8 41 -29 78q-21 36 -53.5 64.5t-74.5 44.5
q-42 17 -93 17v0v0v0v0h-25q-23 63 -63 113q-41 50 -93.5 83t-113.5 48q-61 16 -124 10v0z" />
    <glyph glyph-name="uniE93F" unicode="&#xe93f;" 
d="M349 916q-45 -4 -89 -19t-85 -41q-82 -54 -126 -134q-44 -81 -48 -169.5t31 -173.5q36 -85 112 -146q5 -4 12 -6.5t15 -2.5q17 0 29.5 12.5t12.5 30.5q0 10 -4 18.5t-12 14.5v0q-60 48 -88 114t-24.5 134t37.5 131q35 63 99 105q65 42 136 47q72 6 135.5 -19t112.5 -77
q49 -53 68 -127q4 -14 15 -23t26 -9v0v0h54q72 0 113.5 -40.5t53.5 -95.5q11 -55 -11 -108.5t-88 -82.5q-12 -5 -19 -15.5t-7 -24.5q0 -17 12.5 -29.5t29.5 -12.5q5 0 9.5 1t9.5 3h-1q47 20 79 52q32 33 50 71.5t23 80.5t-4 83q-8 40 -29 77t-53.5 65t-74.5 45
q-42 16 -93 16v0v0v0v0h-25q-23 64 -63 113q-41 50 -93.5 83t-113.5 49q-61 15 -124 10v0zM341 320v0v0q-18 0 -30.5 -12.5t-12.5 -30.5q0 -17 12.5 -29.5t30.5 -12.5v0v0h1v0v0q18 0 30.5 12.5t12.5 29.5q0 18 -12.5 30.5t-30.5 12.5v0v0v0h-1zM341 149v0v0
q-18 0 -30.5 -12.5t-12.5 -29.5q0 -18 12.5 -30.5t30.5 -12.5v0v0h1v0v0q18 0 30.5 12.5t12.5 30.5q0 17 -12.5 29.5t-30.5 12.5v0v0v0h-1zM512 235v0h-1q-17 0 -29.5 -12.5t-12.5 -30.5t12.5 -30.5t29.5 -12.5h1v0v0h1v0q18 0 30.5 12.5t12.5 30.5t-12.5 30.5t-30.5 12.5v0
h-1v0v0zM512 64v0h-1q-17 0 -29.5 -12.5t-12.5 -30.5q0 -17 12.5 -29.5t29.5 -12.5h1v0v0h1v0q18 0 30.5 12.5t12.5 29.5q0 18 -12.5 30.5t-30.5 12.5v0h-1v0v0zM683 320h-0.5h-0.5q-18 0 -30.5 -12.5t-12.5 -30.5q0 -17 12.5 -29.5t30.5 -12.5h0.5h0.5v0h0.5h0.5
q17 0 29.5 12.5t12.5 29.5q0 18 -12.5 30.5t-29.5 12.5h-0.5h-0.5v0v0zM683 149h-0.5h-0.5q-18 0 -30.5 -12.5t-12.5 -29.5q0 -18 12.5 -30.5t30.5 -12.5h0.5h0.5v0h0.5h0.5q17 0 29.5 12.5t12.5 30.5q0 17 -12.5 29.5t-29.5 12.5h-0.5h-0.5v0v0z" />
    <glyph glyph-name="uniE940" unicode="&#xe940;" 
d="M682 747q-17 0 -29.5 -12.5t-12.5 -30.5q0 -9 3.5 -16.5t8.5 -13.5l226 -226l-226 -226q-6 -6 -9.5 -14t-3.5 -17q0 -17 12.5 -29.5t30.5 -12.5q9 0 17 3.5t14 9.5v0l256 256q6 6 9 13.5t3 16.5t-3 16.5t-9 13.5l-256 256q-6 6 -14 9.5t-17 3.5v0v0zM341 747
q-9 0 -16.5 -3.5t-13.5 -9.5l-256 -256q-6 -6 -9 -13.5t-3 -16.5t3 -16.5t9 -13.5l256 -256q6 -6 14 -9.5t17 -3.5q18 0 30.5 12.5t12.5 29.5q0 9 -3.5 17t-9.5 14v0l-226 226l225 226q6 6 9.5 13.5t3.5 16.5q0 18 -12.5 30.5t-29.5 12.5h-1h-1v0h1z" />
    <glyph glyph-name="uniE941" unicode="&#xe941;" 
d="M511 917q-6 0 -12 -1.5t-10 -5.5v0l-427 -277q-9 -6 -14 -15t-5 -21v-298q0 -12 5 -21t14 -15v0l427 -277q5 -4 11 -5.5t12 -1.5t12 1.5t11 5.5v0l427 277q9 6 14 15t5 21v298q0 12 -5 21t-14 15v0l-427 277q-5 4 -11 5.5t-12 1.5h-0.5h-0.5v0v0zM512 824l384 -250v-252
l-384 -250l-384 250v252zM511 342q-17 0 -29.5 -12.5t-12.5 -30.5v0v0v0v-278v0v0q0 -18 12.5 -30.5t30.5 -12.5t30.5 12.5t12.5 30.5v0v0v0v278v0v0q0 18 -12.5 30.5t-30.5 12.5h-0.5h-0.5v0v0zM86 640h-0.5h-0.5q-18 0 -30.5 -12.5t-12.5 -29.5q0 -11 5 -20.5t14 -14.5v-1
l427 -298q5 -4 11 -6t13 -2t13 2t12 6v0l426 298q9 6 14 15.5t5 20.5q0 18 -12.5 30.5t-29.5 12.5q-8 0 -14.5 -2.5t-11.5 -6.5v0l-402 -281l-402 281q-5 4 -11 6t-13 2v0v0zM512 640v0v0q-7 0 -13 -2t-12 -6v0l-426 -298q-9 -6 -14 -15.5t-5 -20.5q0 -18 12.5 -30.5
t29.5 -12.5q8 0 14.5 2.5t11.5 6.5v0l402 281l402 -281q5 -4 11.5 -6.5t14.5 -2.5q17 0 29.5 12.5t12.5 30.5q0 11 -5 20.5t-14 14.5v1l-427 298q-5 4 -11 6t-13 2v0v0zM511 918q-17 0 -29.5 -12.5t-12.5 -30.5v0v0v0v-278v0v0q0 -18 12.5 -30.5t30.5 -12.5t30.5 12.5
t12.5 30.5v0v0v0v278v0v0q0 18 -12.5 30.5t-30.5 12.5h-0.5h-0.5v0v0z" />
    <glyph glyph-name="uniE942" unicode="&#xe942;" 
d="M512 917q-17 0 -33 -4t-31 -13l-298 -170l-1 -1v0v0q-29 -17 -46.5 -46.5t-17.5 -63.5v0v0v0v0v0v-342v0v0v0v0v0q0 -34 17.5 -63.5t46.5 -46.5v0v0l1 -1l298 -170q30 -17 64 -17t64 17l298 170l1 1v0v0q29 17 46.5 46.5t17.5 63.5v0v0v0v342v0v0v0v0v0q0 34 -17.5 63.5
t-46.5 46.5v0v0h-1l-298 171q-15 9 -31 13t-33 4v0zM491 826q10 6 21 6t21 -6v0v0h1l298 -170q10 -6 15.5 -16t5.5 -21v-342q0 -11 -5.5 -21t-15.5 -15l-298 -171h-1v0v0q-10 -6 -21 -6t-21 6v0v0v0l-299 171q-10 5 -15.5 15t-5.5 21v342q0 11 5.5 21t15.5 15l299 171v0v0v0
v0zM321 823h-0.5h-1.5q-17 0 -29.5 -12.5t-12.5 -29.5q0 -12 6 -22t15 -15l1 -1l192 -111q4 -2 9.5 -3.5t11.5 -1.5t11.5 1.5t10.5 4.5l-1 -1l192 111q10 6 16 16t6 21q0 18 -12.5 30.5t-30.5 12.5q-6 0 -11.5 -1.5t-10.5 -4.5h1l-171 -98l-171 98q-4 3 -9 4.5t-11 1.5v0v0z
M125 491q-17 -1 -28.5 -13.5t-11.5 -29.5q0 -12 6 -21.5t15 -15.5h1l170 -99v-196v-0.5v-0.5q0 -18 12.5 -30.5t30.5 -12.5t30.5 12.5t12.5 30.5v0.5v0.5v0v221q0 12 -6 21.5t-15 15.5h-1l-192 111q-4 3 -10 4.5t-12 1.5h-1h-1v0v0zM898 491h-0.5h-0.5q-7 0 -12.5 -1.5
t-10.5 -4.5h1l-192 -111q-10 -6 -16 -15.5t-6 -21.5v-221v-0.5v-0.5q0 -18 12.5 -30.5t30.5 -12.5t30.5 12.5t12.5 30.5v0.5v0.5v0v196l170 99q10 6 16 15.5t6 21.5q0 18 -12 30t-29 13v0v0zM141 706h-1.5h-0.5q-18 0 -30.5 -12.5t-12.5 -30.5q0 -12 6 -21.5t16 -15.5v0
l373 -215q4 -3 9.5 -4.5t11.5 -1.5t11.5 1.5t10.5 4.5h-1l373 215q9 6 15 15.5t6 21.5q0 18 -12.5 30.5t-30.5 12.5q-5 0 -10.5 -1.5t-10.5 -4.5v0l-351 -203l-351 203q-4 3 -9.5 4.5t-10.5 1.5v0v0zM511 491q-17 0 -29.5 -12.5t-12.5 -29.5v-1v0v0v-430v-0.5v-0.5
q0 -17 12.5 -29.5t30.5 -12.5t30.5 12.5t12.5 29.5v0.5v0.5v0v430v0v1q0 17 -12.5 29.5t-30.5 12.5h-0.5h-0.5v0v0z" />
    <glyph glyph-name="uniE943" unicode="&#xe943;" 
d="M768 661v0h-1q-17 0 -29.5 -12.5t-12.5 -29.5q0 -18 12.5 -30.5t29.5 -12.5h1v0h43q34 0 57 -11t39 -28q15 -17 23.5 -40.5t8.5 -48.5t-8.5 -48.5t-23.5 -40.5q-16 -17 -39 -28t-57 -11h-43v0h-1q-17 0 -29.5 -12.5t-12.5 -30.5q0 -17 12.5 -29.5t29.5 -12.5h1v0h43
q50 0 91 18.5t69 48.5q27 31 40 69t13 77t-13 77t-40 69q-28 30 -69 48.5t-91 18.5h-43zM85 661q-17 0 -29.5 -12.5t-12.5 -29.5v0v-384q0 -44 17 -83q16 -39 45 -68t68 -46t83 -17h341q44 0 83 17t68 46t46 68t17 83v384q0 17 -12.5 29.5t-30.5 12.5v0h-683zM128 576h597
v-341q0 -54 -37 -91t-91 -37h-341q-53 0 -90.5 37t-37.5 91v341zM255 961q-17 -1 -29.5 -13.5t-12.5 -29.5v-0.5v-0.5v0v-128v0v0q0 -18 12.5 -30.5t30.5 -12.5t30.5 12.5t12.5 30.5v0v0v0v128v0.5v0.5q0 18 -12.5 30.5t-30.5 12.5h-0.5h-0.5v0v0zM426 961
q-17 -1 -29.5 -13.5t-12.5 -29.5v-0.5v-0.5v0v-128v0v0q0 -18 12.5 -30.5t30.5 -12.5q17 0 29.5 12.5t12.5 30.5v0v0v0v128v0.5v0.5q0 18 -12.5 30.5t-29.5 12.5h-1v0v0v0zM597 961q-18 -1 -30 -13.5t-12 -29.5v-0.5v-0.5v0v-128v0v0q0 -18 12.5 -30.5t29.5 -12.5
q18 0 30.5 12.5t12.5 30.5v0v0v0v128v0.5v0.5q0 18 -12.5 30.5t-30.5 12.5v0v0v0v0z" />
    <glyph glyph-name="uniE944" unicode="&#xe944;" 
d="M511 875h-2.5h-3.5v0h-292q-52 0 -90 -38t-38 -90v-598q0 -52 38 -90t90 -38h292h3h4h3.5h3.5v0h292q52 0 90 38t38 90v598q0 52 -38 90t-90 38h-292h-3h-4h-0.5h-0.5v0v0zM213 789h256v-682h-256q-18 0 -30 12t-12 30v598q0 18 12 30t30 12v0zM555 789h256q18 0 30 -12
t12 -30v-598q0 -18 -12 -30t-30 -12h-256v682z" />
    <glyph glyph-name="uniE945" unicode="&#xe945;" 
d="M256 875q-70 0 -120.5 -50.5t-50.5 -120.5t50.5 -120.5t120.5 -50.5h85v-170h-85q-70 0 -120.5 -50.5t-50.5 -120.5t50.5 -120.5t120.5 -50.5t120.5 50.5t50.5 120.5v85h170v-85q0 -70 50.5 -120.5t120.5 -50.5t120.5 50.5t50.5 120.5t-50.5 120.5t-120.5 50.5h-85v170
h85q70 0 120.5 50.5t50.5 120.5t-50.5 120.5t-120.5 50.5t-120.5 -50.5t-50.5 -120.5v-85h-170v85q0 70 -50.5 120.5t-120.5 50.5v0zM256 789q36 0 60.5 -24.5t24.5 -60.5v-85h-85q-36 0 -60.5 24.5t-24.5 60.5t24.5 60.5t60.5 24.5v0zM768 789q36 0 60.5 -24.5t24.5 -60.5
t-24.5 -60.5t-60.5 -24.5h-85v85q0 36 24.5 60.5t60.5 24.5v0zM427 533h170v-170h-170v170zM256 277h85v-85q0 -36 -24.5 -60.5t-60.5 -24.5t-60.5 24.5t-24.5 60.5t24.5 60.5t60.5 24.5v0zM683 277h85q36 0 60.5 -24.5t24.5 -60.5t-24.5 -60.5t-60.5 -24.5t-60.5 24.5
t-24.5 60.5v85z" />
    <glyph glyph-name="uniE946" unicode="&#xe946;" 
d="M512 917q-97 0 -182 -37q-86 -37 -149.5 -100.5t-100.5 -149.5q-37 -85 -37 -182t37 -182q37 -86 100.5 -149.5t149.5 -100.5q85 -37 182 -37t182 37q86 37 149.5 100.5t100.5 149.5q37 85 37 182t-37 182q-37 86 -100.5 149.5t-149.5 100.5q-85 37 -182 37v0zM512 832
q80 0 150 -30t122 -82t82 -122t30 -150t-30 -150t-82 -122t-122 -82t-150 -30t-150 30t-122 82t-82 122t-30 150t30 150t82 122t122 82t150 30zM693 672q-4 0 -7.5 -1t-6.5 -2v0l-271 -90q-9 -3 -16.5 -10t-10.5 -17v0l-90 -271q-1 -3 -2 -6.5t-1 -7.5q0 -18 12.5 -30.5
t30.5 -12.5q4 0 7.5 1t6.5 2v0l271 90q10 3 17 10t10 17v0l90 271q1 3 2 6.5t1 7.5q0 18 -12.5 30.5t-30.5 12.5v0v0v0v0zM625 561l-56 -170l-170 -56l56 170z" />
    <glyph glyph-name="uniE947" unicode="&#xe947;" 
d="M469 619q-52 0 -90 -38t-38 -90v-384q0 -53 38 -90.5t90 -37.5h384q53 0 90.5 37.5t37.5 90.5v384q0 52 -37.5 90t-90.5 38h-384zM469 533h384q19 0 31 -12t12 -30v-384q0 -19 -12 -31t-31 -12h-384q-18 0 -30 12t-12 31v384q0 18 12 30t30 12v0zM171 917
q-53 0 -90.5 -37.5t-37.5 -90.5v-384q0 -52 37.5 -90t90.5 -38h42h0.5h0.5q18 0 30.5 12.5t12.5 30.5t-12.5 30.5t-30.5 12.5h-0.5h-0.5h-42q-18 0 -30.5 12t-12.5 30v384q0 18 12.5 30.5t30.5 12.5h384q18 0 30 -12.5t12 -30.5v-42v-0.5v-0.5q0 -18 12.5 -30.5t30.5 -12.5
t30.5 12.5t12.5 30.5v0.5v0.5v0v42q0 53 -38 90.5t-90 37.5h-384z" />
    <glyph glyph-name="uniE948" unicode="&#xe948;" 
d="M383 576q-8 0 -16 -3.5t-13 -8.5l-214 -214q-5 -6 -8.5 -13.5t-3.5 -16.5t3.5 -16.5t8.5 -13.5l214 -213q6 -7 14 -10.5t17 -3.5q17 0 29.5 12.5t12.5 30.5q0 9 -3.5 17t-9.5 14v0l-183 183l183 183q6 6 9.5 14t3.5 17q0 17 -12.5 29.5t-30.5 12.5h-0.5h-0.5v0v0z
M853 833q-18 -1 -30 -13.5t-12 -29.5v-0.5v-0.5v0v-298q0 -54 -37.5 -91t-90.5 -37h-512h-0.5h-0.5q-18 0 -30.5 -12.5t-12.5 -30.5t12.5 -30.5t30.5 -12.5h0.5h0.5h512q44 0 82 17q39 17 68 46t46 68t17 83v298v0.5v0.5q0 18 -12.5 30.5t-30.5 12.5v0v0v0v0z" />
    <glyph glyph-name="uniE949" unicode="&#xe949;" 
d="M640 576q-18 0 -30.5 -12.5t-12.5 -29.5q0 -9 3.5 -17t9.5 -14l183 -183l-183 -183q-6 -6 -9.5 -14t-3.5 -17q0 -18 12.5 -30.5t29.5 -12.5q9 0 17 3.5t14 9.5v0l213 214q6 6 9.5 13.5t3.5 16.5t-3.5 16.5t-9.5 13.5l-213 213q-6 6 -13.5 9.5t-16.5 3.5v0v0zM170 833
q-17 -1 -29.5 -13.5t-12.5 -29.5v-0.5v-0.5v0v-298q0 -44 17 -83t46 -68t68 -46q38 -17 82 -17h512h0.5h0.5q18 0 30.5 12.5t12.5 30.5t-12.5 30.5t-30.5 12.5h-0.5h-0.5h-512q-53 0 -90.5 37t-37.5 91v298v0.5v0.5q0 18 -12.5 30.5t-29.5 12.5h-1v0v0v0z" />
    <glyph glyph-name="uniE94A" unicode="&#xe94a;" 
d="M170 363q-17 0 -29.5 -12.5t-12.5 -30.5q0 -9 3.5 -16.5t8.5 -13.5l214 -214q6 -5 13.5 -8.5t16.5 -3.5t16.5 3.5t13.5 8.5l213 214q7 6 10.5 14t3.5 17q0 17 -12.5 29.5t-30.5 12.5q-9 0 -17 -3.5t-14 -9.5v0l-183 -183l-183 183q-6 6 -14 9.5t-17 3.5v0v0zM555 832
q-44 0 -83 -17t-68 -46t-46 -68q-17 -38 -17 -82v-512v-0.5v-0.5q0 -18 12.5 -30.5t30.5 -12.5t30.5 12.5t12.5 30.5v0.5v0.5v0v512q0 53 37 90.5t91 37.5h298h0.5h0.5q18 0 30.5 12.5t12.5 29.5q0 18 -12.5 30.5t-30.5 12.5h-0.5h-0.5v0h-298z" />
    <glyph glyph-name="uniE94B" unicode="&#xe94b;" 
d="M383 832q-8 0 -15.5 -3.5t-13.5 -8.5l-214 -214q-6 -6 -9.5 -14t-3.5 -17q0 -17 12.5 -29.5t30.5 -12.5q9 0 17 3.5t14 9.5v0l183 183l183 -183q6 -6 14 -9.5t17 -3.5q18 0 30.5 12.5t12.5 29.5q0 9 -3.5 17t-9.5 14v0l-214 213q-6 6 -13.5 9.5t-16.5 3.5h-0.5h-0.5v0v0z
M383 833q-17 -1 -29.5 -13.5t-12.5 -29.5v-0.5v-0.5v0v-512q0 -44 17 -82q17 -39 46 -68t68 -46t83 -17h298h0.5h0.5q18 0 30.5 12.5t12.5 30.5q0 17 -12.5 29.5t-30.5 12.5h-0.5h-0.5h-298q-54 0 -91 37.5t-37 90.5v512v0.5v0.5q0 18 -12.5 30.5t-30.5 12.5h-0.5h-0.5v0v0z
" />
    <glyph glyph-name="uniE94C" unicode="&#xe94c;" 
d="M426 363q-17 0 -29.5 -12.5t-12.5 -30.5q0 -9 3.5 -16.5t8.5 -13.5l214 -214q6 -5 13.5 -8.5t16.5 -3.5t16.5 3.5t13.5 8.5l213 214q7 6 10.5 14t3.5 17q0 17 -12.5 29.5t-30.5 12.5q-9 0 -17 -3.5t-14 -9.5v0l-183 -183l-183 183q-6 6 -14 9.5t-17 3.5v0v0zM171 832
h-0.5h-0.5q-18 0 -30.5 -12.5t-12.5 -30.5q0 -17 12.5 -29.5t30.5 -12.5h0.5h0.5h298q54 0 91 -37.5t37 -90.5v-512v-0.5v-0.5q0 -18 12.5 -30.5t30.5 -12.5t30.5 12.5t12.5 30.5v0.5v0.5v0v512q0 44 -17 82q-17 39 -46 68t-68 46t-83 17h-298z" />
    <glyph glyph-name="uniE94D" unicode="&#xe94d;" 
d="M639 832q-8 0 -15.5 -3.5t-13.5 -8.5l-214 -214q-6 -6 -9.5 -14t-3.5 -17q0 -17 12.5 -29.5t30.5 -12.5q9 0 17 3.5t14 9.5v0l183 183l183 -183q6 -6 14 -9.5t17 -3.5q18 0 30.5 12.5t12.5 29.5q0 9 -3.5 17t-9.5 14h-1l-213 213q-6 6 -13.5 9.5t-16.5 3.5h-0.5h-0.5v0v0
zM639 833q-17 -1 -29.5 -13.5t-12.5 -29.5v-0.5v-0.5v0v-512q0 -53 -37 -90.5t-91 -37.5h-298h-0.5h-0.5q-18 0 -30.5 -12.5t-12.5 -29.5q0 -18 12.5 -30.5t30.5 -12.5h0.5h0.5h298q44 0 83 17t68 46t46 68q17 38 17 82v512v0.5v0.5q0 18 -12.5 30.5t-30.5 12.5h-0.5h-0.5v0
v0z" />
    <glyph glyph-name="uniE94E" unicode="&#xe94e;" 
d="M383 832q-8 0 -16 -3.5t-13 -8.5l-214 -214q-5 -6 -8.5 -13.5t-3.5 -16.5t3.5 -16.5t8.5 -13.5l214 -213q6 -7 14 -10.5t17 -3.5q17 0 29.5 12.5t12.5 30.5q0 9 -3.5 17t-9.5 14v0l-183 183l183 183q6 6 9.5 14t3.5 17q0 17 -12.5 29.5t-30.5 12.5h-0.5h-0.5v0v0z
M171 619h-0.5h-0.5q-18 0 -30.5 -12.5t-12.5 -30.5t12.5 -30.5t30.5 -12.5h0.5h0.5h512q53 0 90.5 -37t37.5 -91v-298v-0.5v-0.5q0 -18 12.5 -30.5t29.5 -12.5q18 0 30.5 12.5t12.5 30.5v0.5v0.5v0v298q0 44 -17 83t-46 68t-68 46q-38 17 -82 17h-512z" />
    <glyph glyph-name="uniE94F" unicode="&#xe94f;" 
d="M640 832q-18 0 -30.5 -12.5t-12.5 -29.5q0 -9 3.5 -17t9.5 -14l183 -183l-183 -183q-6 -6 -9.5 -14t-3.5 -17q0 -18 12.5 -30.5t29.5 -12.5q9 0 17 3.5t14 9.5v0l213 214q6 6 9.5 13.5t3.5 16.5t-3.5 16.5t-9.5 13.5l-213 213q-6 6 -13.5 9.5t-16.5 3.5v0v0zM341 619
q-44 0 -82 -17q-39 -17 -68 -46t-46 -68t-17 -83v-298v-0.5v-0.5q0 -18 12.5 -30.5t30.5 -12.5q17 0 29.5 12.5t12.5 30.5v0.5v0.5v0v298q0 54 37.5 91t90.5 37h512h0.5h0.5q18 0 30.5 12.5t12.5 30.5t-12.5 30.5t-30.5 12.5h-0.5h-0.5v0h-512z" />
    <glyph glyph-name="uniE950" unicode="&#xe950;" 
d="M256 832q-53 0 -90.5 -37.5t-37.5 -90.5v-512q0 -53 37.5 -90.5t90.5 -37.5h512q53 0 90.5 37.5t37.5 90.5v512q0 53 -37.5 90.5t-90.5 37.5h-512zM256 747h512q18 0 30.5 -12.5t12.5 -30.5v-512q0 -18 -12.5 -30.5t-30.5 -12.5h-512q-18 0 -30.5 12.5t-12.5 30.5v512
q0 18 12.5 30.5t30.5 12.5zM384 619q-18 0 -30.5 -12.5t-12.5 -30.5v0v-256q0 -18 12.5 -30.5t30.5 -12.5h256q18 0 30.5 12.5t12.5 30.5v0v256q0 18 -12.5 30.5t-30.5 12.5v0h-256zM427 533h170v-170h-170v170zM383 961q-17 -1 -29.5 -13.5t-12.5 -29.5v-0.5v-0.5v0v-128v0
v0q0 -18 12.5 -30.5t30.5 -12.5t30.5 12.5t12.5 30.5v0v0v0v128v0.5v0.5q0 18 -12.5 30.5t-30.5 12.5h-0.5h-0.5v0v0zM639 961q-17 -1 -29.5 -13.5t-12.5 -29.5v-0.5v-0.5v0v-128v0v0q0 -18 12.5 -30.5t30.5 -12.5t30.5 12.5t12.5 30.5v0v0v0v128v0.5v0.5q0 18 -12.5 30.5
t-30.5 12.5h-0.5h-0.5v0v0zM383 150q-17 0 -29.5 -12.5t-12.5 -30.5v0v0v0v-128v-0.5v-0.5q0 -18 12.5 -30.5t30.5 -12.5t30.5 12.5t12.5 30.5v0.5v0.5v0v128v0v0q0 18 -12.5 30.5t-30.5 12.5h-0.5h-0.5v0v0zM639 150q-17 0 -29.5 -12.5t-12.5 -30.5v0v0v0v-128v-0.5v-0.5
q0 -18 12.5 -30.5t30.5 -12.5t30.5 12.5t12.5 30.5v0.5v0.5v0v128v0v0q0 18 -12.5 30.5t-30.5 12.5h-0.5h-0.5v0v0zM853 619v0v0q-18 0 -30.5 -12.5t-12.5 -30.5t12.5 -30.5t30.5 -12.5v0v0h128h0.5h0.5q18 0 30.5 12.5t12.5 30.5t-12.5 30.5t-30.5 12.5h-0.5h-0.5v0h-128z
M853 405v0v0q-18 0 -30.5 -12.5t-12.5 -29.5q0 -18 12.5 -30.5t30.5 -12.5v0v0h128h0.5h0.5q18 0 30.5 12.5t12.5 30.5q0 17 -12.5 29.5t-30.5 12.5h-0.5h-0.5v0h-128zM43 619h-0.5h-0.5q-18 0 -30.5 -12.5t-12.5 -30.5t12.5 -30.5t30.5 -12.5h0.5h0.5h128v0v0
q18 0 30.5 12.5t12.5 30.5t-12.5 30.5t-30.5 12.5v0v0v0h-128zM43 405h-0.5h-0.5q-18 0 -30.5 -12.5t-12.5 -29.5q0 -18 12.5 -30.5t30.5 -12.5h0.5h0.5h128v0v0q18 0 30.5 12.5t12.5 30.5q0 17 -12.5 29.5t-30.5 12.5v0v0v0h-128z" />
    <glyph glyph-name="uniE951" unicode="&#xe951;" 
d="M128 832q-53 0 -90.5 -37.5t-37.5 -90.5v-512q0 -53 37.5 -90.5t90.5 -37.5h768q53 0 90.5 37.5t37.5 90.5v512q0 53 -37.5 90.5t-90.5 37.5h-768zM128 747h768q18 0 30.5 -12.5t12.5 -30.5v-512q0 -18 -12.5 -30.5t-30.5 -12.5h-768q-18 0 -30.5 12.5t-12.5 30.5v512
q0 18 12.5 30.5t30.5 12.5zM43 576h-0.5h-0.5q-18 0 -30.5 -12.5t-12.5 -30.5q0 -17 12.5 -29.5t30.5 -12.5h0.5h0.5h938h0.5h0.5q18 0 30.5 12.5t12.5 29.5q0 18 -12.5 30.5t-30.5 12.5h-0.5h-0.5v0h-938z" />
    <glyph glyph-name="uniE952" unicode="&#xe952;" 
d="M261 961q-17 -1 -29.5 -13.5t-12.5 -29.5v0v0v0l-6 -640v0v-1v0v0v0q0 -52 38 -90t90 -38h640h0.5h0.5q18 0 30.5 12.5t12.5 30.5t-12.5 30.5t-30.5 12.5h-0.5h-0.5h-640q-18 0 -30 12t-12 30l5 640v0.5v0.5q0 18 -12.5 30.5t-29.5 12.5h-1v0v0v0zM682 747l-640 -6v0v0
q-18 0 -30.5 -12.5t-12.5 -30.5q0 -17 12.5 -29.5t30.5 -12.5h0.5h0.5v0l640 5q18 0 30 -12t12 -30v-640v-0.5v-0.5q0 -18 12.5 -30.5t30.5 -12.5t30.5 12.5t12.5 30.5v0.5v0.5v0v640q0 52 -38 90t-90 38v0v0h-1v0v0v0z" />
    <glyph glyph-name="uniE953" unicode="&#xe953;" 
d="M512 917q-97 0 -182 -37q-86 -37 -149.5 -100.5t-100.5 -149.5q-37 -85 -37 -182t37 -182q37 -86 100.5 -149.5t149.5 -100.5q85 -37 182 -37t182 37q86 37 149.5 100.5t100.5 149.5q37 85 37 182t-37 182q-37 86 -100.5 149.5t-149.5 100.5q-85 37 -182 37v0zM512 832
q80 0 150 -30t122 -82t82 -122t30 -150t-30 -150t-82 -122t-122 -82t-150 -30t-150 30t-122 82t-82 122t-30 150t30 150t82 122t122 82t150 30zM768 491v0h-1q-17 0 -29.5 -12.5t-12.5 -30.5t12.5 -30.5t29.5 -12.5h1v0h171v0v0q18 0 30.5 12.5t12.5 30.5t-12.5 30.5
t-30.5 12.5v0v0v0h-171zM85 491v0v0q-18 0 -30.5 -12.5t-12.5 -30.5t12.5 -30.5t30.5 -12.5v0v0h171v0h1q17 0 29.5 12.5t12.5 30.5t-12.5 30.5t-29.5 12.5h-1v0v0h-171zM511 918q-17 0 -29.5 -12.5t-12.5 -30.5v0v0v0v-171v0v-1q0 -17 12.5 -29.5t30.5 -12.5t30.5 12.5
t12.5 29.5v1v0v0v171v0v0q0 18 -12.5 30.5t-30.5 12.5h-0.5h-0.5v0v0zM511 235q-17 0 -29.5 -12.5t-12.5 -29.5v-1v0v0v-171v0v0q0 -18 12.5 -30.5t30.5 -12.5t30.5 12.5t12.5 30.5v0v0v0v171v0v1q0 17 -12.5 29.5t-30.5 12.5h-0.5h-0.5v0v0z" />
    <glyph glyph-name="uniE954" unicode="&#xe954;" 
d="M512 917q-82 0 -155 -10t-130 -29q-28 -10 -52 -21.5t-43 -26.5t-33 -36t-14 -47q0 -27 14 -48t33 -36t43 -26.5t52 -20.5q57 -19 130 -29.5t155 -10.5t155 10.5t130 29.5q28 9 52 20.5t43 26.5t33 36t14 48q0 26 -14 47t-33 36t-43 26.5t-52 21.5q-57 19 -130 29
t-155 10zM512 832q77 0 144 -10t114 -25q24 -8 41.5 -17t27.5 -17q11 -8 12.5 -12l1.5 -4q0 -1 -1.5 -5t-12.5 -12q-10 -8 -27.5 -16.5t-41.5 -16.5q-47 -16 -114 -26t-144 -10t-144 10t-114 26q-24 8 -41.5 16.5t-27.5 16.5q-11 8 -12.5 12t-1.5 5l1.5 4t12.5 12
q10 8 27.5 17t41.5 17q47 15 114 25t144 10zM127 491q-17 0 -29.5 -12.5t-12.5 -29.5v-1v0v0q0 -26 14 -47t32 -36q19 -15 43 -27t52 -21q57 -19 130 -29.5t156 -10.5t156 10.5t129 29.5q29 9 53 21t42 27q19 15 33 36t14 47v0v1q0 17 -12.5 29.5t-30.5 12.5t-30.5 -12.5
t-12.5 -29.5v-1v0v0l-1.5 -4t-11.5 -12q-11 -8 -28.5 -17t-40.5 -17q-48 -16 -115 -25.5t-144 -9.5t-144 9.5t-114 25.5q-24 8 -41.5 17t-27.5 17q-11 8 -12.5 12l-1.5 4v0v1q0 17 -12.5 29.5t-30.5 12.5h-0.5h-0.5v0v0zM127 790q-17 0 -29.5 -12.5t-12.5 -30.5v0v0v0v-598
q0 -26 14 -47t32 -36q19 -15 43 -26.5t52 -21.5q57 -19 130 -29t156 -10t156 10t129 29q29 10 53 21.5t42 26.5q19 15 33 36t14 47v598v0v0q0 18 -12.5 30.5t-30.5 12.5t-30.5 -12.5t-12.5 -30.5v0v0v0v-598l-1.5 -4t-11.5 -12q-11 -8 -28.5 -17t-40.5 -17
q-48 -16 -115 -25.5t-144 -9.5t-144 9.5t-114 25.5q-24 8 -41.5 17t-27.5 17q-11 8 -12.5 12l-1.5 4v598v0v0q0 18 -12.5 30.5t-30.5 12.5h-0.5h-0.5v0v0z" />
    <glyph glyph-name="uniE955" unicode="&#xe955;" 
d="M341 832q-9 0 -17.5 -4t-14.5 -11l-298 -341q-5 -6 -8 -13t-3 -15t3 -15t8 -13l298 -341q6 -7 14.5 -11t17.5 -4h555q53 0 90.5 37.5t37.5 90.5v512q0 53 -37.5 90.5t-90.5 37.5h-555zM361 747h535q18 0 30.5 -12.5t12.5 -30.5v-512q0 -18 -12.5 -30.5t-30.5 -12.5h-535
l-262 299zM767 619q-8 0 -16 -3.5t-13 -9.5l-256 -256q-6 -6 -9.5 -14t-3.5 -17q0 -17 12.5 -29.5t29.5 -12.5q9 0 17 3.5t14 9.5v0l256 256q6 6 9.5 13.5t3.5 16.5q0 18 -12.5 30.5t-30.5 12.5h-0.5h-0.5v0v0zM512 619q-18 0 -30.5 -12.5t-12.5 -30.5q0 -9 3.5 -16.5
t9.5 -13.5l256 -256q6 -6 14 -9.5t17 -3.5q17 0 29.5 12.5t12.5 29.5q0 9 -3.5 17t-9.5 14v0l-256 256q-6 6 -13.5 9.5t-16.5 3.5v0v0z" />
    <glyph glyph-name="uniE956" unicode="&#xe956;" 
d="M512 917q-97 0 -182 -37q-86 -37 -149.5 -100.5t-100.5 -149.5q-37 -85 -37 -182t37 -182q37 -86 100.5 -149.5t149.5 -100.5q85 -37 182 -37t182 37q86 37 149.5 100.5t100.5 149.5q37 85 37 182t-37 182q-37 86 -100.5 149.5t-149.5 100.5q-85 37 -182 37v0zM512 832
q80 0 150 -30t122 -82t82 -122t30 -150t-30 -150t-82 -122t-122 -82t-150 -30t-150 30t-122 82t-82 122t-30 150t30 150t82 122t122 82t150 30zM512 619q-70 0 -120.5 -50.5t-50.5 -120.5t50.5 -120.5t120.5 -50.5t120.5 50.5t50.5 120.5t-50.5 120.5t-120.5 50.5v0z
M512 533q36 0 60.5 -24.5t24.5 -60.5t-24.5 -60.5t-60.5 -24.5t-60.5 24.5t-24.5 60.5t24.5 60.5t60.5 24.5v0z" />
    <glyph glyph-name="uniE957" unicode="&#xe957;" 
d="M512 832q-53 0 -90.5 -37.5t-37.5 -90.5t37.5 -90.5t90.5 -37.5t90.5 37.5t37.5 90.5t-37.5 90.5t-90.5 37.5zM512 747q18 0 30.5 -12.5t12.5 -30.5t-12.5 -30.5t-30.5 -12.5t-30.5 12.5t-12.5 30.5t12.5 30.5t30.5 12.5zM213 491v0v0q-18 0 -30.5 -12.5t-12.5 -30.5
t12.5 -30.5t30.5 -12.5v0v0h598v0v0q18 0 30.5 12.5t12.5 30.5t-12.5 30.5t-30.5 12.5v0v0v0h-598zM512 320q-53 0 -90.5 -37.5t-37.5 -90.5t37.5 -90.5t90.5 -37.5t90.5 37.5t37.5 90.5t-37.5 90.5t-90.5 37.5zM512 235q18 0 30.5 -12.5t12.5 -30.5t-12.5 -30.5
t-30.5 -12.5t-30.5 12.5t-12.5 30.5t12.5 30.5t30.5 12.5z" />
    <glyph glyph-name="uniE958" unicode="&#xe958;" 
d="M341 491v0v0q-18 0 -30.5 -12.5t-12.5 -30.5t12.5 -30.5t30.5 -12.5v0v0h342v0v0q18 0 30.5 12.5t12.5 30.5t-12.5 30.5t-30.5 12.5v0v0v0h-342zM512 320v0h-1q-17 0 -29.5 -12.5t-12.5 -30.5q0 -17 12.5 -29.5t29.5 -12.5h1v0v0v0h1q17 0 29.5 12.5t12.5 29.5
q0 18 -12.5 30.5t-29.5 12.5h-1v0v0v0zM512 661v0h-1q-17 0 -29.5 -12.5t-12.5 -29.5q0 -18 12.5 -30.5t29.5 -12.5h1v0v0v0h1q17 0 29.5 12.5t12.5 30.5q0 17 -12.5 29.5t-29.5 12.5h-1v0v0v0zM512 917q-97 0 -182 -37q-86 -37 -149.5 -100.5t-100.5 -149.5
q-37 -85 -37 -182t37 -182q37 -86 100.5 -149.5t149.5 -100.5q85 -37 182 -37t182 37q86 37 149.5 100.5t100.5 149.5q37 85 37 182t-37 182q-37 86 -100.5 149.5t-149.5 100.5q-85 37 -182 37v0zM512 832q80 0 150 -30t122 -82t82 -122t30 -150t-30 -150t-82 -122t-122 -82
t-150 -30t-150 30t-122 82t-82 122t-30 150t30 150t82 122t122 82t150 30z" />
    <glyph glyph-name="uniE959" unicode="&#xe959;" 
d="M213 875q-52 0 -90 -38t-38 -90v-598q0 -52 38 -90t90 -38h598q52 0 90 38t38 90v598q0 52 -38 90t-90 38h-598zM213 789h598q18 0 30 -12t12 -30v-598q0 -18 -12 -30t-30 -12h-598q-18 0 -30 12t-12 30v598q0 18 12 30t30 12v0zM341 491v0v0q-18 0 -30.5 -12.5
t-12.5 -30.5t12.5 -30.5t30.5 -12.5v0v0h342v0v0q18 0 30.5 12.5t12.5 30.5t-12.5 30.5t-30.5 12.5v0v0v0h-342zM512 320v0h-1q-17 0 -29.5 -12.5t-12.5 -30.5q0 -17 12.5 -29.5t29.5 -12.5h1v0v0v0h1q17 0 29.5 12.5t12.5 29.5q0 18 -12.5 30.5t-29.5 12.5h-1v0v0v0z
M512 661v0h-1q-17 0 -29.5 -12.5t-12.5 -29.5q0 -18 12.5 -30.5t29.5 -12.5h1v0v0v0h1q17 0 29.5 12.5t12.5 30.5q0 17 -12.5 29.5t-29.5 12.5h-1v0v0v0z" />
    <glyph glyph-name="uniE95A" unicode="&#xe95a;" 
d="M511 961q-17 -1 -29.5 -13.5t-12.5 -29.5v-0.5v-0.5v0v-938v-0.5v-0.5q0 -18 12.5 -30.5t30.5 -12.5t30.5 12.5t12.5 30.5v0.5v0.5v0v938v0.5v0.5q0 18 -12.5 30.5t-30.5 12.5h-0.5h-0.5v0v0zM405 789q-45 0 -82 -16.5t-62 -44.5q-24 -27 -36 -61.5t-12 -69.5t12 -69
t36 -62q25 -27 62 -44t82 -17h214q29 0 48 -9t32 -23t19.5 -33.5t6.5 -40.5t-6.5 -40.5t-19.5 -34.5q-13 -14 -32 -23t-48 -9h-363v0h-1q-17 0 -29.5 -12.5t-12.5 -30.5q0 -17 12.5 -29.5t29.5 -12.5h1v0h363q45 0 82 16.5t62 44.5q24 27 36 61.5t12 69.5t-12 69t-36 62
q-25 27 -62 44t-82 17h-214q-29 0 -48 9t-32 23t-19.5 33.5t-6.5 40.5t6.5 40.5t19.5 34.5q13 14 32 23t48 9h320h0.5h0.5q18 0 30.5 12.5t12.5 30.5q0 17 -12.5 29.5t-30.5 12.5h-0.5h-0.5v0h-320z" />
    <glyph glyph-name="uniE95B" unicode="&#xe95b;" 
d="M127 363q-17 0 -29.5 -12.5t-12.5 -29.5v-1v0v0v-171q0 -52 38 -90t90 -38h598q52 0 90 38t38 90v171v0v1q0 17 -12.5 29.5t-30.5 12.5t-30.5 -12.5t-12.5 -29.5v-1v0v0v-171q0 -18 -12 -30t-30 -12h-598q-18 0 -30 12t-12 30v171v0v1q0 17 -12.5 29.5t-30.5 12.5h-0.5
h-0.5v0v0zM298 576q-17 0 -29.5 -12.5t-12.5 -29.5q0 -9 3.5 -17t8.5 -14l214 -213q6 -6 13.5 -9.5t16.5 -3.5t16.5 3.5t13.5 9.5l213 213q7 6 10.5 14t3.5 17q0 18 -12.5 30.5t-30.5 12.5q-9 0 -17 -3.5t-14 -9.5v0l-183 -184l-183 184q-6 5 -14 8.5t-17 3.5v0v0zM511 875
q-17 0 -29.5 -12.5t-12.5 -29.5v-1v0v0v-512v0v-1q0 -17 12.5 -29.5t30.5 -12.5t30.5 12.5t12.5 29.5v1v0v0v512v0v1q0 17 -12.5 29.5t-30.5 12.5h-0.5h-0.5v0v0z" />
    <glyph glyph-name="uniE95C" unicode="&#xe95c;" 
d="M341 278q-18 0 -30.5 -12.5t-12.5 -30.5q0 -9 3.5 -17t9.5 -13l171 -171q6 -6 13.5 -9.5t16.5 -3.5t16.5 3.5t13.5 9.5l171 170q6 6 9.5 14t3.5 17q0 18 -12.5 30.5t-30.5 12.5q-9 0 -17 -3.5t-13 -9.5v0l-141 -141l-140 141q-6 6 -14 9.5t-17 3.5v0v0zM511 491
q-17 0 -29.5 -12.5t-12.5 -29.5v-1v0v0v-384v0v-1q0 -17 12.5 -29.5t30.5 -12.5t30.5 12.5t12.5 29.5v1v0v0v384v0v1q0 17 -12.5 29.5t-30.5 12.5h-0.5h-0.5v0v0zM374 875q-43 -1 -86 -12t-84 -33q-82 -43 -132 -115q-51 -72 -66 -155.5t7 -168.5t83 -154q6 -7 14.5 -11.5
t18.5 -4.5q18 0 30.5 12.5t12.5 30.5q0 8 -3.5 16t-8.5 13v0q-48 55 -65 121q-18 66 -6 130.5t51 120.5t104 90q64 34 132 35q69 1 128.5 -25.5t105.5 -77.5q45 -51 63 -122q4 -14 15 -23t26 -9h54q64 0 105.5 -34.5t57.5 -84.5q16 -49 2 -101.5t-67 -89.5q-8 -6 -13 -15
t-5 -20q0 -18 12.5 -30.5t30.5 -12.5q7 0 13 2.5t12 5.5h-1q38 27 62 61t36 72t11 78q0 39 -12 76q-11 37 -34 69q-22 33 -53.5 57t-71.5 39q-39 14 -85 14h-29q-22 59 -59 107t-85.5 81.5t-104.5 51.5q-57 17 -116 16v0z" />
    <glyph glyph-name="uniE95D" unicode="&#xe95d;" 
d="M512 917q-97 0 -182 -37q-86 -37 -149.5 -100.5t-100.5 -149.5q-37 -85 -37 -182t37 -182q37 -86 100.5 -149.5t149.5 -100.5q85 -37 182 -37t182 37q86 37 149.5 100.5t100.5 149.5q37 85 37 182t-37 182q-37 86 -100.5 149.5t-149.5 100.5q-85 37 -182 37v0zM512 832
q80 0 150 -30t122 -82t82 -122t30 -150t-30 -150t-82 -122t-122 -82t-150 -30t-150 30t-122 82t-82 122t-30 150t30 150t82 122t122 82t150 30zM363 886q-17 -1 -29 -13.5t-12 -29.5q0 -7 2.5 -13.5t6.5 -11.5v0q47 -66 83 -122.5t67 -110.5q-40 -11 -84 -20q-43 -9 -91 -15
t-100 -9q-53 -4 -111 -5q-17 0 -29.5 -12.5t-12.5 -30.5q0 -17 12.5 -29.5t30.5 -12.5h0.5h0.5v0q62 1 119 5t110 11t102 17q49 11 94 24q7 -12 13 -26t12 -27q-3 -1 -7.5 -1.5t-7.5 -1.5q-45 -16 -88 -41q-44 -25 -86 -60t-83 -81t-81 -103q-4 -5 -6 -11.5t-2 -13.5
q0 -18 12.5 -30.5t29.5 -12.5q12 0 21 5t15 14v0q38 54 75 95t73.5 72t73.5 52q37 22 75 35q3 1 8 1t8 2q23 -63 45 -135t44 -163q4 -15 15.5 -24t26.5 -9q18 0 30.5 12.5t12.5 30.5q0 2 -0.5 4.5t-1.5 5.5v0q-21 87 -42.5 157.5t-43.5 133.5q56 7 119 4.5t135 -21.5
q3 -1 5.5 -1.5t5.5 -0.5q18 0 30.5 12.5t12.5 30.5q0 15 -9 26.5t-23 14.5v0q-86 23 -162.5 24.5t-144.5 -8.5q-8 18 -15.5 36.5t-15.5 35.5q71 30 133.5 72t114.5 102q4 6 7 13t3 15q0 18 -12.5 30.5t-30.5 12.5q-10 0 -18 -4.5t-14 -10.5v0q-46 -54 -102 -91.5t-121 -64.5
q-33 60 -72 121.5t-89 131.5q-6 8 -15 13t-20 5h-1.5h-0.5v0v0z" />
    <glyph glyph-name="uniE95E" unicode="&#xe95e;" 
d="M511 888q-8 0 -16 -3.5t-13 -9.5v0l-241 -241q-45 -45 -72 -97q-26 -53 -35.5 -107.5t-3.5 -109.5q7 -55 27 -105q21 -50 55 -93q35 -43 80.5 -75t100.5 -50q56 -19 119 -19q64 0 119 19q56 18 101.5 50t79.5 75t55 93t27 105t-3.5 109.5t-35.5 107.5q-26 52 -71 97
l-242 241q-6 6 -13.5 9.5t-16.5 3.5h-0.5h-0.5v0v0zM512 785l211 -211q36 -36 57 -77q20 -40 27.5 -82.5t2.5 -84.5q-6 -43 -22 -82t-42 -73t-61 -58.5t-79 -38.5q-43 -14 -94 -14q-50 0 -94 14q-43 14 -78 38.5t-61 58.5q-27 34 -43 73t-21 82q-6 42 1.5 84.5t28.5 82.5
q20 41 56 77v0v0v0v0v0z" />
    <glyph glyph-name="uniE95F" unicode="&#xe95f;" 
d="M171 832q-53 0 -90.5 -37.5t-37.5 -90.5v-597q0 -53 37.5 -90.5t90.5 -37.5h597q53 0 90.5 37.5t37.5 90.5v298v0.5v0.5q0 18 -12.5 30.5t-30.5 12.5q-17 0 -29.5 -12.5t-12.5 -30.5v-0.5v-0.5v0v-298q0 -18 -12.5 -30.5t-30.5 -12.5h-597q-18 0 -30.5 12.5t-12.5 30.5
v597q0 18 12.5 30.5t30.5 12.5h298h0.5h0.5q18 0 30.5 12.5t12.5 29.5q0 18 -12.5 30.5t-30.5 12.5h-0.5h-0.5v0h-298zM860 924q-26 1 -52.5 -9t-48.5 -31l-405 -406q-4 -4 -7 -9t-4 -10v-1l-43 -170q-1 -3 -1 -5.5v-5.5q0 -17 12.5 -29.5t29.5 -12.5h5.5t5.5 1v0l170 43
q6 1 11 4t9 7l405 405q22 22 32 48.5t9 52.5q-2 26 -12.5 48t-27.5 40q-18 17 -40 27.5t-48 12.5v0zM855 839q8 -1 16.5 -5t15.5 -11t11 -15.5t5 -16.5q0 -8 -2.5 -16.5t-13.5 -18.5l-397 -397l-90 -23l22 90l397 397q11 11 19.5 13.5t16.5 2.5v0z" />
    <glyph glyph-name="uniE960" unicode="&#xe960;" 
d="M818 912q-31 2 -63.5 -10.5t-59.5 -39.5l-576 -576q-4 -4 -6.5 -8.5t-4.5 -9.5v-1l-64 -234q-1 -3 -1 -6v-6q0 -17 12.5 -29.5t29.5 -12.5h6t6 1v0l234 64q6 2 10.5 4.5t8.5 6.5v0l576 576q27 27 39.5 59.5t10.5 63.5q-2 32 -15.5 59.5t-34.5 48.5t-48.5 34.5t-58.5 15.5
h-1zM814 827q13 -1 27 -7.5t25 -17.5t17.5 -25t7.5 -27q1 -14 -4 -28.5t-21 -29.5l-568 -568l-152 -42l41 152l568 568q16 16 30.5 21t27.5 4h1z" />
    <glyph glyph-name="uniE961" unicode="&#xe961;" 
d="M512 149v0h-1q-17 0 -29.5 -12.5t-12.5 -29.5q0 -18 12.5 -30.5t29.5 -12.5h1v0h384v0h1q17 0 29.5 12.5t12.5 30.5q0 17 -12.5 29.5t-29.5 12.5h-1v0v0h-384zM775 881q-26 2 -53 -8.5t-48 -31.5l-533 -533q-4 -4 -7 -9t-5 -11v0l-42 -171q-1 -2 -1.5 -5t-0.5 -5
q0 -18 12.5 -30.5t30.5 -12.5q3 0 5.5 0.5t5.5 0.5h-1l171 43q6 1 11 4t9 7l533 534q22 21 32 47.5t9 52.5q-2 26 -13 48.5t-28 39.5t-39.5 28t-48.5 12h1zM770 796q8 0 16.5 -4.5t15.5 -10.5q7 -7 11 -16t4 -17q1 -8 -2 -16.5t-13 -18.5l-525 -525l-90 -23l22 91l525 525
q11 10 19 13t16 2h1z" />
    <glyph glyph-name="uniE962" unicode="&#xe962;" 
d="M213 747q-52 0 -90 -38t-38 -90v-470q0 -52 38 -90t90 -38h470q52 0 90 38t38 90v256v0.5v0.5q0 18 -12.5 30.5t-30.5 12.5t-30.5 -12.5t-12.5 -30.5v-0.5v-0.5v0v-256q0 -18 -12 -30t-30 -12h-470q-18 0 -30 12t-12 30v470q0 18 12 30t30 12h256h0.5h0.5q18 0 30.5 12.5
t12.5 30.5t-12.5 30.5t-30.5 12.5h-0.5h-0.5v0h-256zM640 875v0h-1q-17 0 -29.5 -12.5t-12.5 -30.5t12.5 -30.5t29.5 -12.5h1v0h213v-213v0v-1q0 -17 12.5 -29.5t30.5 -12.5t30.5 12.5t12.5 29.5v1v0v0v256q0 18 -12.5 30.5t-30.5 12.5v0h-256zM895 875q-8 0 -16 -3.5
t-13 -9.5l-469 -469q-7 -6 -10.5 -14t-3.5 -17q0 -18 12.5 -30.5t30.5 -12.5q9 0 17 3.5t14 9.5v0l469 470q6 6 9.5 13.5t3.5 16.5q0 18 -12.5 30.5t-30.5 12.5h-0.5h-0.5v0v0z" />
    <glyph glyph-name="uniE963" unicode="&#xe963;" 
d="M512 832q-124 0 -219 -57t-159 -125.5t-97 -125.5l-32 -57q-3 -4 -4 -9t-1 -10t1 -10t4 -9v0l32 -57q33 -57 97 -125.5t159 -125.5t219 -57t219 57t159 125.5t97 125.5l32 57q3 4 4 9t1 10t-1 10t-4 9h1l-33 57t-97 125.5t-159 125.5t-219 57v0zM512 747q94 0 168 -42
t127.5 -95t83.5 -101q31 -48 38 -61q-7 -13 -38 -61q-30 -48 -83.5 -101t-127.5 -95t-168 -42t-168 42t-127.5 95t-83.5 101q-31 48 -38 61q7 13 38 61q30 48 83.5 101t127.5 95t168 42zM512 619q-70 0 -120.5 -50.5t-50.5 -120.5t50.5 -120.5t120.5 -50.5t120.5 50.5
t50.5 120.5t-50.5 120.5t-120.5 50.5v0zM512 533q36 0 60.5 -24.5t24.5 -60.5t-24.5 -60.5t-60.5 -24.5t-60.5 24.5t-24.5 60.5t24.5 60.5t60.5 24.5v0z" />
    <glyph glyph-name="uniE964" unicode="&#xe964;" 
d="M512 832q-25 0 -50 -3t-49 -8q-15 -3 -24.5 -15t-9.5 -27q0 -18 12.5 -30.5t29.5 -12.5q3 0 6 0.5t5 1.5v0q20 4 40 6.5t40 2.5v0v0v0v0v0q94 0 168 -42q75 -43 128 -96t84 -101t38 -61q-17 -28 -34.5 -55.5t-38.5 -52.5q-5 -5 -8 -12t-3 -15q0 -18 12.5 -30.5
t30.5 -12.5q10 0 18.5 4t14.5 11v0q28 34 52.5 70t44.5 74q2 4 3.5 9t1.5 11q0 5 -1 10t-4 9h1l-33 57t-97 125.5t-159 125.5t-219 57v0zM259 745v0v0q-7 0 -14 -2.5t-12 -7.5v0q-36 -27 -68 -57t-60.5 -64t-53.5 -70q-25 -37 -46 -76q-2 -4 -3.5 -9t-1.5 -11q0 -5 1 -10
t4 -9h-1l33 -57t97 -125.5t159 -125.5t219 -57v0v0h0.5h0.5v0q75 1 146.5 26t131.5 71q8 6 13 15t5 19q0 18 -12.5 30.5t-30.5 12.5q-7 0 -14 -2.5t-12 -7.5v0q-50 -37 -108 -57.5t-120 -21.5q-94 1 -169 43q-74 42 -127 95t-84 101t-38 60q37 64 84.5 119.5t105.5 99.5
q8 6 13 15t5 20q0 17 -12.5 29.5t-30.5 12.5v0v1zM422 582v0v0q-9 0 -16.5 -3.5t-13.5 -8.5v0q-30 -28 -44 -62.5t-12 -68.5q1 -33 15.5 -62.5t36.5 -52.5q23 -22 52.5 -36.5t62.5 -15.5q34 -2 68.5 12t62.5 44q5 6 8.5 14t3.5 16q0 18 -12.5 30.5t-30.5 12.5q-9 0 -17.5 -4
t-14.5 -10v0q-17 -19 -32.5 -25t-31.5 -5q-15 1 -30.5 8t-27.5 19q-13 13 -20 28.5t-8 30.5q-1 16 5 31.5t25 32.5q6 6 10 14t4 18q0 17 -12.5 29.5t-30.5 12.5v0v1zM42 960q-17 0 -29.5 -12.5t-12.5 -29.5q0 -9 3.5 -17t8.5 -14l939 -938q6 -7 14 -10.5t17 -3.5
q18 0 30.5 12.5t12.5 30.5q0 9 -3.5 17t-9.5 14h-1l-938 939q-6 5 -14 8.5t-17 3.5v0v0z" />
    <glyph glyph-name="uniE965" unicode="&#xe965;" 
d="M640 917q-53 0 -99 -20q-47 -20 -82 -55t-55 -81q-20 -47 -20 -100v-85h-85q-18 0 -30.5 -12.5t-12.5 -30.5v0v-170q0 -18 12.5 -30.5t30.5 -12.5h85v-299q0 -17 12.5 -29.5t30.5 -12.5h170q18 0 30.5 12.5t12.5 29.5v0v299h85v0v0q15 0 26.5 9t15.5 23v0l42 171
q1 2 1.5 5t0.5 5q0 18 -12.5 30.5t-30.5 12.5v0v0h-128v85h128q18 0 30.5 12.5t12.5 30.5v0v171q0 17 -12.5 29.5t-30.5 12.5v0h-128zM640 832h85v-85h-85q-35 0 -60 -25.5t-25 -60.5v-128q0 -17 12.5 -29.5t29.5 -12.5h116l-21 -86h-95q-17 0 -29.5 -12.5t-12.5 -29.5v0
v-299h-86v299q0 17 -12.5 29.5t-29.5 12.5h-86v86h86q17 0 29.5 12.5t12.5 29.5v0v128q0 71 50 121t121 50v0z" />
    <glyph glyph-name="uniE966" unicode="&#xe966;" 
d="M553 789q-17 0 -29 -12.5t-12 -29.5v0v0v0v-598q0 -17 12.5 -29.5t30.5 -12.5q7 0 13.5 2t12.5 7v0l384 298q7 6 11.5 15t4.5 19t-4.5 19t-11.5 15v0l-384 298q-6 5 -12.5 7t-13.5 2h-1.5h-0.5v0v0zM597 660l272 -212l-272 -211v423zM84 789q-17 0 -29 -12.5t-12 -29.5v0
v0v0v-598q0 -17 12.5 -29.5t29.5 -12.5q8 0 14.5 2t12.5 7v0l384 298q7 6 11.5 15t4.5 19t-4.5 19t-11.5 15v0l-384 298q-6 5 -12.5 7t-14.5 2h-0.5h-0.5v0v0zM128 660l272 -212l-272 -211v423z" />
    <glyph glyph-name="uniE967" unicode="&#xe967;" 
d="M696 922q-57 3 -115.5 -19t-109.5 -73l-288 -288q-6 -6 -9 -13.5t-3 -16.5v-363q0 -17 12.5 -29.5t29.5 -12.5h363v0v0q9 0 16.5 3t13.5 9v0l288 289q51 51 73 109.5t18 115.5q-3 57 -27.5 107.5t-63.5 89.5t-90 63.5t-108 28.5v0zM691 837q40 -3 76.5 -20.5t65.5 -46.5
t47 -66t20 -76q3 -40 -12 -80t-55 -80v0v0v0v0v0l-275 -276h-302v302l275 276q40 39 80.5 54t79.5 13v0zM682 662q-9 -1 -16.5 -4t-12.5 -9l-598 -597q-6 -6 -9.5 -14t-3.5 -17q0 -18 12.5 -30.5t30.5 -12.5q9 0 17 3.5t13 9.5v0l598 597q6 6 9.5 14t3.5 17q0 18 -12.5 30.5
t-30.5 12.5h-0.5h-0.5v0v0zM384 363v0h-1q-17 0 -29.5 -12.5t-12.5 -30.5t12.5 -30.5t29.5 -12.5h1v0h363v0v0q18 0 30.5 12.5t12.5 30.5t-12.5 30.5t-30.5 12.5v0v0v0h-363z" />
    <glyph glyph-name="uniE968" unicode="&#xe968;" 
d="M363 917q-79 0 -135.5 -56.5t-56.5 -135.5t56.5 -135.5t135.5 -56.5h149q18 0 30.5 12.5t12.5 30.5v0v299q0 17 -12.5 29.5t-30.5 12.5v0h-149zM363 832h106v-213h-106q-45 0 -76 31t-31 75q0 45 31 76t76 31v0zM512 917q-18 0 -30.5 -12.5t-12.5 -29.5v0v-299
q0 -18 12.5 -30.5t30.5 -12.5h149q46 0 83 17t61 44q25 28 36.5 62t11.5 69t-11.5 69.5t-36.5 61.5q-24 28 -61 44.5t-83 16.5h-149zM555 832h106q30 0 49 -9t31 -23q13 -15 20 -34.5t7 -40.5t-7 -40.5t-20 -33.5q-12 -14 -31 -23t-49 -9h-106v213zM661 619q-35 0 -69 -12
t-62 -36q-27 -25 -44 -62t-17 -82q0 -46 17 -83t44 -61q28 -25 62 -36.5t69 -11.5t69.5 11.5t61.5 36.5q28 24 44.5 61t16.5 83q0 45 -16.5 82t-44.5 62q-27 24 -61.5 36t-69.5 12zM661 533q21 0 40.5 -6.5t34.5 -19.5q14 -13 23 -32t9 -48q0 -30 -9 -49t-23 -31
q-15 -13 -34.5 -20t-40.5 -7t-40.5 7t-33.5 20q-14 12 -23 31t-9 49q0 29 9 48t23 32t33.5 19.5t40.5 6.5v0zM363 320q-79 0 -135.5 -56.5t-56.5 -135.5q0 -45 16.5 -82t44.5 -62q27 -24 61.5 -36t69.5 -12t69 12t62 36q27 25 44 62t17 82v149q0 18 -12.5 30.5t-30.5 12.5v0
h-149zM363 235h106v-107q0 -29 -9 -48t-23 -32t-33.5 -20t-40.5 -7t-40.5 7t-34.5 20q-14 13 -23 32t-9 48q0 45 31 76t76 31v0zM363 619q-79 0 -135.5 -56.5t-56.5 -135.5t56.5 -135.5t135.5 -56.5h149q18 0 30.5 12.5t12.5 29.5v0v299q0 18 -12.5 30.5t-30.5 12.5v0h-149z
M363 533h106v-213h-106q-45 0 -76 31t-31 76q0 44 31 75t76 31v0z" />
    <glyph glyph-name="uniE969" unicode="&#xe969;" 
d="M256 917q-53 0 -90.5 -37.5t-37.5 -90.5v-682q0 -53 37.5 -90.5t90.5 -37.5h512q53 0 90.5 37.5t37.5 90.5v469q0 9 -3.5 16.5t-8.5 13.5l-299 299q-6 6 -13.5 9t-16.5 3v0h-299zM256 832h281l274 -274v-451q0 -18 -12.5 -30.5t-30.5 -12.5h-512q-18 0 -30.5 12.5
t-12.5 30.5v682q0 18 12.5 30.5t30.5 12.5v0zM554 918q-17 0 -29.5 -12.5t-12.5 -30.5v0v0v0v-299q0 -18 12.5 -30.5t30.5 -12.5h298h0.5h0.5q18 0 30.5 12.5t12.5 30.5t-12.5 30.5t-30.5 12.5h-0.5h-0.5h-256v256v0v0q0 18 -12.5 30.5t-29.5 12.5h-1v0v0v0z" />
    <glyph glyph-name="uniE96A" unicode="&#xe96a;" 
d="M256 917q-53 0 -90.5 -37.5t-37.5 -90.5v-682q0 -53 37.5 -90.5t90.5 -37.5h512q53 0 90.5 37.5t37.5 90.5v512q0 9 -3.5 16.5t-8.5 13.5l-256 256q-6 6 -14 9t-17 3v0h-341zM256 832h324l231 -231v-494q0 -18 -12.5 -30.5t-30.5 -12.5h-512q-18 0 -30.5 12.5t-12.5 30.5
v682q0 18 12.5 30.5t30.5 12.5v0zM597 918q-18 0 -30 -12.5t-12 -30.5v0v0v0v-256q0 -18 12.5 -30.5t29.5 -12.5h256h0.5h0.5q18 0 30.5 12.5t12.5 30.5q0 17 -12.5 29.5t-30.5 12.5h-0.5h-0.5h-213v214v0v0q0 18 -12.5 30.5t-30.5 12.5v0v0v0v0zM384 363v0h-1
q-17 0 -29.5 -12.5t-12.5 -30.5t12.5 -30.5t29.5 -12.5h1v0h256v0h1q17 0 29.5 12.5t12.5 30.5t-12.5 30.5t-29.5 12.5h-1v0v0h-256z" />
    <glyph glyph-name="uniE96B" unicode="&#xe96b;" 
d="M256 917q-53 0 -90.5 -37.5t-37.5 -90.5v-682q0 -53 37.5 -90.5t90.5 -37.5h512q53 0 90.5 37.5t37.5 90.5v512q0 9 -3.5 16.5t-8.5 13.5l-256 256q-6 6 -14 9t-17 3v0h-341zM256 832h324l231 -231v-494q0 -18 -12.5 -30.5t-30.5 -12.5h-512q-18 0 -30.5 12.5t-12.5 30.5
v682q0 18 12.5 30.5t30.5 12.5v0zM597 918q-18 0 -30 -12.5t-12 -30.5v0v0v0v-256q0 -18 12.5 -30.5t29.5 -12.5h256h0.5h0.5q18 0 30.5 12.5t12.5 30.5q0 17 -12.5 29.5t-30.5 12.5h-0.5h-0.5h-213v214v0v0q0 18 -12.5 30.5t-30.5 12.5v0v0v0v0zM511 491q-17 0 -29.5 -12.5
t-12.5 -29.5v-1v0v0v-256v0v-1q0 -17 12.5 -29.5t30.5 -12.5t30.5 12.5t12.5 29.5v1v0v0v256v0v1q0 17 -12.5 29.5t-30.5 12.5h-0.5h-0.5v0v0zM384 363v0h-1q-17 0 -29.5 -12.5t-12.5 -30.5t12.5 -30.5t29.5 -12.5h1v0h256v0h1q17 0 29.5 12.5t12.5 30.5t-12.5 30.5
t-29.5 12.5h-1v0v0h-256z" />
    <glyph glyph-name="uniE96C" unicode="&#xe96c;" 
d="M256 917q-53 0 -90.5 -37.5t-37.5 -90.5v-682q0 -53 37.5 -90.5t90.5 -37.5h512q53 0 90.5 37.5t37.5 90.5v512q0 9 -3.5 16.5t-8.5 13.5l-256 256q-6 6 -14 9t-17 3v0h-341zM256 832h324l231 -231v-494q0 -18 -12.5 -30.5t-30.5 -12.5h-512q-18 0 -30.5 12.5t-12.5 30.5
v682q0 18 12.5 30.5t30.5 12.5v0zM597 918q-18 0 -30 -12.5t-12 -30.5v0v0v0v-256q0 -18 12.5 -30.5t29.5 -12.5h256h0.5h0.5q18 0 30.5 12.5t12.5 30.5q0 17 -12.5 29.5t-30.5 12.5h-0.5h-0.5h-213v214v0v0q0 18 -12.5 30.5t-30.5 12.5v0v0v0v0zM341 448v0v0
q-18 0 -30.5 -12.5t-12.5 -30.5q0 -17 12.5 -29.5t30.5 -12.5v0v0h342v0v0q18 0 30.5 12.5t12.5 29.5q0 18 -12.5 30.5t-30.5 12.5v0v0v0h-342zM341 277v0v0q-18 0 -30.5 -12.5t-12.5 -29.5q0 -18 12.5 -30.5t30.5 -12.5v0v0h342v0v0q18 0 30.5 12.5t12.5 30.5
q0 17 -12.5 29.5t-30.5 12.5v0v0v0h-342zM341 619v0v0q-18 0 -30.5 -12.5t-12.5 -30.5t12.5 -30.5t30.5 -12.5v0v0h86v0v0q18 0 30.5 12.5t12.5 30.5t-12.5 30.5t-30.5 12.5v0v0h-43h-43z" />
    <glyph glyph-name="uniE96D" unicode="&#xe96d;" 
d="M178 917q-55 0 -95 -40t-40 -95v-668q0 -55 40 -95t95 -40h668q55 0 95 40t40 95v668q0 55 -40 95t-95 40h-668zM178 832h668q21 0 35.5 -14.5t14.5 -35.5v-668q0 -21 -14.5 -35.5t-35.5 -14.5h-668q-21 0 -35.5 14.5t-14.5 35.5v668q0 21 14.5 35.5t35.5 14.5v0z
M298 918q-17 0 -29.5 -12.5t-12.5 -30.5v0v0v0v-854v0v0q0 -18 12.5 -30.5t30.5 -12.5q17 0 29.5 12.5t12.5 30.5v0v0v0v854v0v0q0 18 -12.5 30.5t-29.5 12.5h-1v0v0v0zM725 918q-18 0 -30 -12.5t-12 -30.5v0v0v0v-854v0v0q0 -18 12.5 -30.5t29.5 -12.5q18 0 30.5 12.5
t12.5 30.5v0v0v0v854v0v0q0 18 -12.5 30.5t-30.5 12.5v0v0v0v0zM85 491v0v0q-18 0 -30.5 -12.5t-12.5 -30.5t12.5 -30.5t30.5 -12.5v0v0h854v0v0q18 0 30.5 12.5t12.5 30.5t-12.5 30.5t-30.5 12.5v0v0v0h-854zM85 704v0v0q-18 0 -30.5 -12.5t-12.5 -30.5q0 -17 12.5 -29.5
t30.5 -12.5v0v0h214v0v0q18 0 30.5 12.5t12.5 29.5q0 18 -12.5 30.5t-30.5 12.5v0v0v0h-214zM85 277v0v0q-18 0 -30.5 -12.5t-12.5 -29.5q0 -18 12.5 -30.5t30.5 -12.5v0v0h214v0v0q18 0 30.5 12.5t12.5 30.5q0 17 -12.5 29.5t-30.5 12.5v0v0v0h-214zM725 277v0v0
q-18 0 -30.5 -12.5t-12.5 -29.5q0 -18 12.5 -30.5t30.5 -12.5v0v0h214v0v0q18 0 30.5 12.5t12.5 30.5q0 17 -12.5 29.5t-30.5 12.5v0v0v0h-214zM725 704v0v0q-18 0 -30.5 -12.5t-12.5 -30.5q0 -17 12.5 -29.5t30.5 -12.5v0v0h214v0v0q18 0 30.5 12.5t12.5 29.5
q0 18 -12.5 30.5t-30.5 12.5v0v0v0h-214z" />
    <glyph glyph-name="uniE96E" unicode="&#xe96e;" 
d="M85 875v0v0q-17 0 -29.5 -12.5t-12.5 -30.5q0 -8 2.5 -15t7.5 -13v0l331 -391v-264v0v0q0 -12 6.5 -22t16.5 -16h1l170 -85q4 -2 9 -3.5t10 -1.5q18 0 30.5 12.5t12.5 30.5v0v349l331 391q5 6 7.5 13t2.5 15q0 18 -12.5 30.5t-29.5 12.5v0v0v0h-854zM177 789h670
l-282 -333q-5 -6 -7.5 -13t-2.5 -15v0v0v0v-295l-86 43v252v0v0q0 8 -2.5 15t-7.5 13v0z" />
    <glyph glyph-name="uniE96F" unicode="&#xe96f;" 
d="M341 917q-51 0 -88 -7t-61 -17t-38 -20.5l-14 -10.5q-5 -6 -8.5 -13.5t-3.5 -16.5v-512q0 -18 12.5 -30.5t30.5 -12.5q9 0 16.5 3.5t13.5 9.5v0l3.5 2.5t19.5 9.5q16 6 44.5 12t72.5 6q41 0 78 -12t77 -28t86 -30.5t101 -14.5q51 0 88 7t61 17t38 20.5l14 10.5
q5 6 8.5 13.5t3.5 16.5v0v512q0 18 -12.5 30.5t-30.5 12.5q-9 0 -16.5 -3.5t-13.5 -9.5v0l-3.5 -2.5t-19.5 -9.5q-16 -6 -44.5 -12t-72.5 -6q-41 0 -78 12t-77 28t-86 30.5t-101 14.5v0zM341 832q41 0 78 -12t77 -28t86 -30.5t101 -14.5q44 0 74 6.5t54 14.5v-424
q-3 -2 -3.5 -2.5t-7.5 -3.5q-16 -6 -44.5 -12t-72.5 -6q-41 0 -78 12t-77 28t-86 30.5t-101 14.5q-44 0 -74 -6.5t-54 -14.5v424q3 2 3.5 2.5t7.5 3.5q16 6 44.5 12t72.5 6v0zM170 363q-17 0 -29.5 -12.5t-12.5 -29.5v-1v0v0v-299v0v0q0 -18 12.5 -30.5t30.5 -12.5
q17 0 29.5 12.5t12.5 30.5v0v0v0v299v0v1q0 17 -12.5 29.5t-29.5 12.5h-1v0v0v0z" />
    <glyph glyph-name="uniE970" unicode="&#xe970;" 
d="M171 875q-53 0 -90.5 -38t-37.5 -90v-598q0 -52 37.5 -90t90.5 -38h682q53 0 90.5 38t37.5 90v470q0 52 -37.5 90t-90.5 38h-361l-72 109q-6 8 -15.5 13.5t-20.5 5.5v0h-213zM171 789h190l73 -109q6 -8 15 -13.5t20 -5.5h384q18 0 30.5 -12t12.5 -30v-470
q0 -18 -12.5 -30t-30.5 -12h-682q-18 0 -30.5 12t-12.5 30v598q0 18 12.5 30t30.5 12v0z" />
    <glyph glyph-name="uniE971" unicode="&#xe971;" 
d="M171 875q-53 0 -90.5 -38t-37.5 -90v-598q0 -52 37.5 -90t90.5 -38h682q53 0 90.5 38t37.5 90v470q0 52 -37.5 90t-90.5 38h-361l-72 109q-6 8 -15.5 13.5t-20.5 5.5v0h-213zM171 789h190l73 -109q6 -8 15 -13.5t20 -5.5h384q18 0 30.5 -12t12.5 -30v-470
q0 -18 -12.5 -30t-30.5 -12h-682q-18 0 -30.5 12t-12.5 30v598q0 18 12.5 30t30.5 12v0zM384 405v0h-1q-17 0 -29.5 -12.5t-12.5 -29.5q0 -18 12.5 -30.5t29.5 -12.5h1v0h256v0h1q17 0 29.5 12.5t12.5 30.5q0 17 -12.5 29.5t-29.5 12.5h-1v0v0h-256z" />
    <glyph glyph-name="uniE972" unicode="&#xe972;" 
d="M171 875q-53 0 -90.5 -38t-37.5 -90v-598q0 -52 37.5 -90t90.5 -38h682q53 0 90.5 38t37.5 90v470q0 52 -37.5 90t-90.5 38h-361l-72 109q-6 8 -15.5 13.5t-20.5 5.5v0h-213zM171 789h190l73 -109q6 -8 15 -13.5t20 -5.5h384q18 0 30.5 -12t12.5 -30v-470
q0 -18 -12.5 -30t-30.5 -12h-682q-18 0 -30.5 12t-12.5 30v598q0 18 12.5 30t30.5 12v0zM511 534q-17 0 -29.5 -12.5t-12.5 -30.5v0v0v0v-256v-0.5v-0.5q0 -18 12.5 -30.5t30.5 -12.5t30.5 12.5t12.5 30.5v0.5v0.5v0v256v0v0q0 18 -12.5 30.5t-30.5 12.5h-0.5h-0.5v0v0z
M384 405v0h-1q-17 0 -29.5 -12.5t-12.5 -29.5q0 -18 12.5 -30.5t29.5 -12.5h1v0h256v0h1q17 0 29.5 12.5t12.5 30.5q0 17 -12.5 29.5t-29.5 12.5h-1v0v0h-256z" />
    <glyph glyph-name="uniE973" unicode="&#xe973;" 
d="M213 917q-17 0 -29.5 -12.5t-12.5 -29.5q0 -9 3 -17t9 -14l226 -225h-196q-17 0 -29.5 -12.5t-12.5 -30.5v0v-291q-1 -2 -1 -4v-4q0 -9 3.5 -16.5t9.5 -13.5v0v0v-1v0h0.5h0.5v0q1 -1 2 -1.5t1 -1.5h1l294 -295q6 -5 13.5 -8.5t16.5 -3.5q18 0 30.5 12.5t12.5 30.5v256
h256q17 0 29.5 12.5t12.5 29.5q0 9 -3 17t-9 13l-226 226h196q17 0 29.5 12.5t12.5 30.5v0v299q0 17 -12.5 29.5t-29.5 12.5v0h-598zM316 832h452v-213h-238zM256 533h238l214 -213h-189q-1 0 -3 0.5t-4 0.5t-3.5 -0.5t-3.5 -0.5v0h-249v213zM316 235h153v-153z" />
    <glyph glyph-name="uniE974" unicode="&#xe974;" 
d="M512 917q-97 0 -182 -37q-86 -37 -149.5 -100.5t-100.5 -149.5q-37 -85 -37 -182t37 -182q37 -86 100.5 -149.5t149.5 -100.5q85 -37 182 -37t182 37q86 37 149.5 100.5t100.5 149.5q37 85 37 182t-37 182q-37 86 -100.5 149.5t-149.5 100.5q-85 37 -182 37v0zM512 832
q80 0 150 -30t122 -82t82 -122t30 -150t-30 -150t-82 -122t-122 -82t-150 -30t-150 30t-122 82t-82 122t-30 150t30 150t82 122t122 82t150 30zM512 405q-97 0 -151 -51l-54 -51q-4 -5 -6 -11.5t-2 -14.5q0 -17 12.5 -29.5t29.5 -12.5q11 0 20 4.5t14 12.5v0l37 34t100 34
t99.5 -34l36.5 -34q6 -8 15 -12.5t20 -4.5q17 0 29.5 12.5t12.5 29.5q0 8 -2 14.5t-6 11.5v0l-54 51t-151 51zM384 619v0h-1q-17 0 -29.5 -12.5t-12.5 -30.5t12.5 -30.5t29.5 -12.5h1v0v0h1v0q18 0 30.5 12.5t12.5 30.5t-12.5 30.5t-30.5 12.5v0h-1v0v0zM640 619v0h-1
q-17 0 -29.5 -12.5t-12.5 -30.5t12.5 -30.5t29.5 -12.5h1v0v0h1v0q18 0 30.5 12.5t12.5 30.5t-12.5 30.5t-30.5 12.5v0h-1v0v0z" />
    <glyph glyph-name="uniE975" unicode="&#xe975;" 
d="M170 491q-17 0 -29.5 -12.5t-12.5 -29.5v-1v0v0v-427q0 -17 12.5 -29.5t30.5 -12.5h682q18 0 30.5 12.5t12.5 29.5v0v427v0v1q0 17 -12.5 29.5t-30.5 12.5q-17 0 -29.5 -12.5t-12.5 -29.5v-1v0v0v-384h-598v384v0v1q0 17 -12.5 29.5t-29.5 12.5h-1v0v0v0zM85 704
q-17 0 -29.5 -12.5t-12.5 -30.5v0v-213q0 -18 12.5 -30.5t29.5 -12.5h854q17 0 29.5 12.5t12.5 30.5v0v213q0 18 -12.5 30.5t-29.5 12.5v0h-854zM128 619h768v-128h-768v128zM511 705q-17 -1 -29.5 -13.5t-12.5 -29.5v-0.5v-0.5v0v-640v0v0q0 -18 12.5 -30.5t30.5 -12.5
t30.5 12.5t12.5 30.5v0v0v0v640v0.5v0.5q0 18 -12.5 30.5t-30.5 12.5h-0.5h-0.5v0v0zM320 917q-35 0 -64 -13t-48 -34q-19 -22 -28 -48.5t-9 -53.5t9 -53.5t28 -48.5q19 -21 48 -34t64 -13h192q18 0 30.5 12.5t12.5 29.5q0 3 -0.5 5t-0.5 4v0l-10 37t-35 82q-24 45 -71 86.5
t-118 41.5v0zM320 832q41 0 68 -25t47 -60q8 -16 10 -23t6 -20h-131q-19 0 -30 5.5t-18 13.5q-8 8 -12 20t-4 25t4 25t12 20q7 8 18 13.5t30 5.5v0zM704 917q-71 0 -118 -41.5t-71 -86.5q-25 -45 -35 -82l-10 -37q0 -2 -0.5 -4t-0.5 -5q0 -17 12.5 -29.5t30.5 -12.5h192
q35 0 64 13t48 34q19 22 28 48.5t9 53.5t-9 53.5t-28 48.5q-19 21 -48 34t-64 13v0zM704 832q19 0 30 -5.5t18 -13.5q8 -8 12 -20t4 -25t-4 -25t-12 -20q-7 -8 -18 -13.5t-30 -5.5h-131q4 13 6 20t10 23q20 35 47 60t68 25v0z" />
    <glyph glyph-name="uniE976" unicode="&#xe976;" 
d="M255 875q-17 0 -29.5 -12.5t-12.5 -29.5v-1v0v0v-512v0v-1q0 -17 12.5 -29.5t30.5 -12.5t30.5 12.5t12.5 29.5v1v0v0v512v0v1q0 17 -12.5 29.5t-30.5 12.5h-0.5h-0.5v0v0zM768 875q-70 0 -120.5 -50.5t-50.5 -120.5t50.5 -120.5t120.5 -50.5t120.5 50.5t50.5 120.5
t-50.5 120.5t-120.5 50.5zM768 789q36 0 60.5 -24.5t24.5 -60.5t-24.5 -60.5t-60.5 -24.5t-60.5 24.5t-24.5 60.5t24.5 60.5t60.5 24.5v0zM256 363q-70 0 -120.5 -50.5t-50.5 -120.5t50.5 -120.5t120.5 -50.5t120.5 50.5t50.5 120.5t-50.5 120.5t-120.5 50.5zM256 277
q36 0 60.5 -24.5t24.5 -60.5t-24.5 -60.5t-60.5 -24.5t-60.5 24.5t-24.5 60.5t24.5 60.5t60.5 24.5v0zM767 619q-17 0 -29.5 -12.5t-12.5 -29.5v-1v0v0q0 -71 -26 -133q-27 -62 -73.5 -108.5t-108.5 -73.5q-62 -26 -133 -26v0h-1q-17 0 -29.5 -12.5t-12.5 -30.5t12.5 -30.5
t29.5 -12.5h1v0v0q88 0 166 34t135.5 91.5t91.5 135.5t34 166v0v1q0 17 -12.5 29.5t-30.5 12.5h-0.5h-0.5v0v0z" />
    <glyph glyph-name="uniE977" unicode="&#xe977;" 
d="M512 661q-44 0 -83 -17q-39 -16 -68 -45t-45 -68q-17 -39 -17 -83t17 -83q16 -39 45 -68t68 -45q39 -17 83 -17t83 17q39 16 68 45t45 68q17 39 17 83t-17 83q-16 39 -45 68t-68 45q-39 17 -83 17v0zM512 576q53 0 90.5 -37.5t37.5 -90.5t-37.5 -90.5t-90.5 -37.5
t-90.5 37.5t-37.5 90.5t37.5 90.5t90.5 37.5zM45 491h-0.5h-0.5q-17 0 -29.5 -12.5t-12.5 -30.5t12.5 -30.5t29.5 -12.5h0.5h0.5h254v0v0q18 0 30.5 12.5t12.5 30.5t-12.5 30.5t-30.5 12.5v0v0v0h-254zM726 491h-0.5h-0.5q-18 0 -30.5 -12.5t-12.5 -30.5t12.5 -30.5
t30.5 -12.5h0.5h0.5h254v0v0q18 0 30.5 12.5t12.5 30.5t-12.5 30.5t-30.5 12.5v0v0v0h-254z" />
    <glyph glyph-name="uniE978" unicode="&#xe978;" 
d="M226 961q-8 0 -14.5 -1.5l-6.5 -1.5q-9 -3 -16 -9t-11 -15v0q-17 -40 -18.5 -83.5t9.5 -85.5q-29 -36 -46 -79.5t-16 -90.5v0v0v0v0q0 -93 28 -158t74 -104q33 -28 71 -42.5t77 -23.5q-8 -19 -12 -39t-3 -40q-21 -4 -41 -7t-32 0q-17 4 -29 11.5t-23 19.5
q-11 11 -22 25.5t-24 29.5q-14 15 -32 30t-43 22q-3 0 -5.5 0.5t-5.5 0.5q-17 0 -29.5 -12.5t-12.5 -30.5q0 -15 9 -26t23 -15v0q6 -2 13.5 -7.5t17.5 -16.5q9 -12 21.5 -28t29.5 -33q16 -17 39 -31.5t54 -21.5q18 -5 42.5 -1t48.5 8v-84v0v0q0 -18 12.5 -30.5t30.5 -12.5
t30.5 12.5t12.5 30.5v0v0v0v122v3v4v3v3v0v30v0.5v0.5v1v2v-1q-2 22 5.5 42t22.5 36q5 6 8.5 13.5t3.5 15.5q0 17 -11 29t-26 14h-1q-47 6 -90.5 19.5t-74.5 39.5q-32 27 -52 72t-20 125v0v0v0v0v0q0 37 13.5 71t38.5 61q6 6 9 13.5t3 16.5q0 4 -0.5 7.5t-2.5 7.5v-1
q-9 25 -9 50.5t6 50.5q16 -4 43 -15t67 -38q5 -4 11 -5.5t13 -1.5h6t5 1v0q68 18 138.5 18t138.5 -18q2 -1 5 -1h6q6 0 12 1.5t12 5.5h-1q41 27 68 38t42 15q6 -25 6 -50.5t-9 -50.5q-1 -3 -1.5 -6.5t-0.5 -7.5q0 -9 3 -16.5t8 -13.5v0q26 -26 39.5 -60t13.5 -70
q0 -81 -20.5 -127t-51.5 -72q-32 -26 -75 -39t-90 -19q-16 -2 -27 -14t-11 -28q0 -9 3 -16.5t9 -13.5v0q15 -16 22.5 -36t5.5 -42v-2v-2v-165v0v0q0 -18 12.5 -30.5t30.5 -12.5q17 0 29.5 12.5t12.5 30.5v0v0v0v165v-3q2 22 -2.5 43.5t-12.5 41.5q39 8 77 22.5t71 42.5
q46 39 74 104.5t28 159.5q0 46 -17 89t-46 80q12 41 10.5 84.5t-18.5 83.5q-4 9 -11 15t-16 9v0l-6.5 1.5t-14.5 1.5t-18 -1t-23 -3q-22 -5 -54 -20.5t-70 -38.5q-71 17 -143 17t-142 -17q-39 23 -71 38.5t-54 20.5q-12 2 -22.5 3t-17.5 1v0z" />
    <glyph glyph-name="uniE979" unicode="&#xe979;" 
d="M218 922q-11 0 -21.5 -4t-19.5 -12q-5 -5 -9 -10.5t-7 -12.5v-0.5t-1 -1.5v0l-104 -320v0v0v0v-1v0l-52 -161q-8 -24 0 -48t28 -39v0v0v0l455 -331q5 -4 11.5 -6t13.5 -2t13.5 2t11.5 6v0l453 329q21 14 30.5 38.5t1.5 49.5v1.5v0.5v0l-54 160l-104 319q-2 8 -6 14.5
t-10 11.5q0 1 -0.5 1h-0.5v0q-17 16 -41 16t-41 -16q-5 -5 -9 -10.5t-7 -12.5v-0.5t-1 -1.5v0l-94 -291h-284l-94 289q-2 8 -6 14.5t-10 11.5q0 1 -0.5 1h-0.5v0q-8 8 -19 12t-22 4v0zM218 782l81 -248q4 -13 15 -21t25 -8h346q14 0 25 8t15 21v0l81 248l81 -249v0v0v0
l52 -154l-427 -310l-425 308l50 157zM83 381v-1v0v0v1z" />
    <glyph glyph-name="uniE97A" unicode="&#xe97a;" 
d="M768 363q-70 0 -120.5 -50.5t-50.5 -120.5t50.5 -120.5t120.5 -50.5t120.5 50.5t50.5 120.5t-50.5 120.5t-120.5 50.5zM768 277q36 0 60.5 -24.5t24.5 -60.5t-24.5 -60.5t-60.5 -24.5t-60.5 24.5t-24.5 60.5t24.5 60.5t60.5 24.5zM256 875q-70 0 -120.5 -50.5
t-50.5 -120.5t50.5 -120.5t120.5 -50.5t120.5 50.5t50.5 120.5t-50.5 120.5t-120.5 50.5zM256 789q36 0 60.5 -24.5t24.5 -60.5t-24.5 -60.5t-60.5 -24.5t-60.5 24.5t-24.5 60.5t24.5 60.5t60.5 24.5v0zM254 618q-17 -1 -28.5 -13t-12.5 -29v-512v0v-1q0 -17 12.5 -29.5
t30.5 -12.5t30.5 12.5t12.5 29.5v1v0v0v269q29 -40 66 -74q36 -34 79.5 -58.5t92.5 -37.5q49 -14 103 -14v0h1q17 0 29.5 12.5t12.5 30.5t-12.5 30.5t-29.5 12.5h-1v0v0q-71 0 -133 26q-62 27 -108.5 73.5t-73.5 108.5q-26 62 -26 133q-1 17 -13 29.5t-30 12.5h-0.5h-1.5v0
v0z" />
    <glyph glyph-name="uniE97B" unicode="&#xe97b;" 
d="M768 363q-70 0 -120.5 -50.5t-50.5 -120.5t50.5 -120.5t120.5 -50.5t120.5 50.5t50.5 120.5t-50.5 120.5t-120.5 50.5zM768 277q36 0 60.5 -24.5t24.5 -60.5t-24.5 -60.5t-60.5 -24.5t-60.5 24.5t-24.5 60.5t24.5 60.5t60.5 24.5zM256 875q-70 0 -120.5 -50.5
t-50.5 -120.5t50.5 -120.5t120.5 -50.5t120.5 50.5t50.5 120.5t-50.5 120.5t-120.5 50.5zM256 789q36 0 60.5 -24.5t24.5 -60.5t-24.5 -60.5t-60.5 -24.5t-60.5 24.5t-24.5 60.5t24.5 60.5t60.5 24.5v0zM555 747h-0.5h-0.5q-18 0 -30.5 -12.5t-12.5 -30.5t12.5 -30.5
t30.5 -12.5h0.5h0.5h128q18 0 30 -12t12 -30v-299v0v-1q0 -17 12.5 -29.5t30.5 -12.5t30.5 12.5t12.5 29.5v1v0v0v299q0 52 -38 90t-90 38h-128zM255 619q-17 0 -29.5 -12.5t-12.5 -29.5v-1v0v0v-512v0v-1q0 -17 12.5 -29.5t30.5 -12.5t30.5 12.5t12.5 29.5v1v0v0v512v0v1
q0 17 -12.5 29.5t-30.5 12.5h-0.5h-0.5v0v0z" />
    <glyph glyph-name="uniE97C" unicode="&#xe97c;" 
d="M512 917q-97 0 -182 -37q-86 -37 -149.5 -100.5t-100.5 -149.5q-37 -85 -37 -182t37 -182q37 -86 100.5 -149.5t149.5 -100.5q85 -37 182 -37t182 37q86 37 149.5 100.5t100.5 149.5q37 85 37 182t-37 182q-37 86 -100.5 149.5t-149.5 100.5q-85 37 -182 37v0zM512 832
q80 0 150 -30t122 -82t82 -122t30 -150t-30 -150t-82 -122t-122 -82t-150 -30t-150 30t-122 82t-82 122t-30 150t30 150t82 122t122 82t150 30zM85 491v0v0q-18 0 -30.5 -12.5t-12.5 -30.5t12.5 -30.5t30.5 -12.5v0v0h854v0v0q18 0 30.5 12.5t12.5 30.5t-12.5 30.5
t-30.5 12.5v0v0v0h-854zM513 917h-0.5h-0.5q-9 0 -17.5 -3.5t-13.5 -10.5h-1q-42 -46 -75 -99q-34 -54 -57 -111.5t-35 -118.5q-13 -62 -14 -125v-0.5v-0.5v-0.5v-0.5v0q1 -63 14 -125q12 -61 35 -118.5t57 -111.5q33 -53 75 -99q6 -7 14.5 -10.5t17.5 -3.5t17.5 3.5
t13.5 10.5v0q43 46 76 99q34 54 57 111.5t35 118.5q13 62 14 125v0.5v0.5v0.5v0.5v0q-1 63 -14 125q-12 61 -35 118.5t-57 111.5q-33 53 -76 99q-5 7 -13 10.5t-17 3.5v0v0zM512 796q28 -38 52 -79q23 -42 39.5 -85.5t25.5 -89.5q10 -46 11 -94q-1 -48 -11 -94
q-9 -46 -25.5 -89.5t-39.5 -85.5q-24 -41 -52 -79q-28 38 -52 79q-23 42 -39.5 85.5t-25.5 89.5q-10 46 -11 94q1 48 11 94q9 46 25.5 89.5t39.5 85.5q24 41 52 79z" />
    <glyph glyph-name="uniE97D" unicode="&#xe97d;" 
d="M128 875q-18 0 -30.5 -12.5t-12.5 -30.5v0v-299q0 -17 12.5 -29.5t30.5 -12.5h299q17 0 29.5 12.5t12.5 29.5v0v299q0 18 -12.5 30.5t-29.5 12.5v0h-299zM171 789h213v-213h-213v213zM597 875q-17 0 -29.5 -12.5t-12.5 -30.5v0v-299q0 -17 12.5 -29.5t29.5 -12.5h299
q18 0 30.5 12.5t12.5 29.5v0v299q0 18 -12.5 30.5t-30.5 12.5v0h-299zM640 789h213v-213h-213v213zM597 405q-17 0 -29.5 -12.5t-12.5 -29.5v0v-299q0 -18 12.5 -30.5t29.5 -12.5h299q18 0 30.5 12.5t12.5 30.5v0v299q0 17 -12.5 29.5t-30.5 12.5v0h-299zM640 320h213v-213
h-213v213zM128 405q-18 0 -30.5 -12.5t-12.5 -29.5v0v-299q0 -18 12.5 -30.5t30.5 -12.5h299q17 0 29.5 12.5t12.5 30.5v0v299q0 17 -12.5 29.5t-29.5 12.5v0h-299zM171 320h213v-213h-213v213z" />
    <glyph glyph-name="uniE97E" unicode="&#xe97e;" 
d="M85 491v0v0q-18 0 -30.5 -12.5t-12.5 -30.5t12.5 -30.5t30.5 -12.5v0v0h854v0v0q18 0 30.5 12.5t12.5 30.5t-12.5 30.5t-30.5 12.5v0v0v0h-854zM309 832q-36 0 -67 -19t-48 -52l-147 -294q-2 -4 -3 -9t-1 -10v0v0v0v-256q0 -53 37.5 -90.5t90.5 -37.5h682q53 0 90.5 37.5
t37.5 90.5v256v0v0q0 5 -1 10t-3 9v0l-147 294q-17 33 -48 52t-67 19h-406zM309 747h406q12 0 22.5 -6.5t15.5 -17.5v0v0v0l143 -285v-246q0 -18 -12.5 -30.5t-30.5 -12.5h-682q-18 0 -30.5 12.5t-12.5 30.5v246l143 285v0v0v0q5 11 15.5 17.5t22.5 6.5v0zM256 320v0h-1
q-17 0 -29.5 -12.5t-12.5 -30.5q0 -17 12.5 -29.5t29.5 -12.5h1v0v0h1v0q18 0 30.5 12.5t12.5 29.5q0 18 -12.5 30.5t-30.5 12.5v0h-1v0v0zM427 320h-0.5h-0.5q-18 0 -30.5 -12.5t-12.5 -30.5q0 -17 12.5 -29.5t30.5 -12.5h0.5h0.5v0h0.5h0.5q17 0 29.5 12.5t12.5 29.5
q0 18 -12.5 30.5t-29.5 12.5h-0.5h-0.5v0v0z" />
    <glyph glyph-name="uniE97F" unicode="&#xe97f;" 
d="M171 619h-0.5h-0.5q-18 0 -30.5 -12.5t-12.5 -30.5t12.5 -30.5t30.5 -12.5h0.5h0.5h682h0.5h0.5q18 0 30.5 12.5t12.5 30.5t-12.5 30.5t-30.5 12.5h-0.5h-0.5v0h-682zM171 363h-0.5h-0.5q-18 0 -30.5 -12.5t-12.5 -30.5t12.5 -30.5t30.5 -12.5h0.5h0.5h682h0.5h0.5
q18 0 30.5 12.5t12.5 30.5t-12.5 30.5t-30.5 12.5h-0.5h-0.5v0h-682zM427 875q-17 0 -29 -11t-14 -27v0l-85 -768v-2.5v-2.5q0 -18 12.5 -30.5t29.5 -12.5t29 11t14 27v0l85 768v2.5v3.5q0 17 -12.5 29.5t-29.5 12.5v0v0v0v0zM683 875q-17 0 -29 -11t-14 -27v0l-85 -768
v-2.5v-2.5q0 -18 12.5 -30.5t29.5 -12.5t29 11t14 27v0l85 768v2.5v3.5q0 17 -12.5 29.5t-29.5 12.5v0v0v0v0z" />
    <glyph glyph-name="uniE980" unicode="&#xe980;" 
d="M512 875q-88 0 -166 -34t-135.5 -91.5t-91.5 -135.5t-34 -166v-256v0v-1q0 -17 12.5 -29.5t30.5 -12.5t30.5 12.5t12.5 29.5v1v0v0v256q0 71 26 133q27 62 73.5 108.5t108.5 73.5q62 26 133 26t133 -26q62 -27 108.5 -73.5t73.5 -108.5q26 -62 26 -133v-256v0v-1
q0 -17 12.5 -29.5t30.5 -12.5t30.5 12.5t12.5 29.5v1v0v0v256q0 88 -34 166t-91.5 135.5t-135.5 91.5t-166 34v0zM128 405q-18 0 -30.5 -12.5t-12.5 -29.5v0v-214q0 -52 38 -90t90 -38h43q53 0 90.5 38t37.5 90v128q0 53 -37.5 90.5t-90.5 37.5h-128zM768 405
q-53 0 -90.5 -37.5t-37.5 -90.5v-128q0 -52 37.5 -90t90.5 -38h43q52 0 90 38t38 90v214q0 17 -12.5 29.5t-30.5 12.5v0h-128zM171 320h85q18 0 30.5 -12.5t12.5 -30.5v-128q0 -18 -12.5 -30t-30.5 -12h-43q-18 0 -30 12t-12 30v171zM768 320h85v-171q0 -18 -12 -30t-30 -12
h-43q-18 0 -30.5 12t-12.5 30v128q0 18 12.5 30.5t30.5 12.5v0z" />
    <glyph glyph-name="uniE981" unicode="&#xe981;" 
d="M288 878q-53 -3 -100 -25.5t-83 -58.5q-36 -37 -59 -84t-26 -100q-4 -53 17 -107.5t68 -101.5l45 -45l332 -332q6 -6 13.5 -9t16.5 -3t16.5 3t13.5 9l377 377q41 41 61 92t20 104.5t-20 104.5t-61 91q-40 41 -91 61q-51 21 -104.5 21t-104.5 -21q-51 -20 -92 -60l-15 -16
l-15 15q-47 48 -101.5 68.5t-107.5 17.5v-1zM293 793q35 2 71.5 -11t72.5 -49l45 -45q6 -6 13.5 -9.5t16.5 -3.5t16.5 3.5t13.5 9.5l45 45q57 57 136 57t136 -57q57 -56 57 -135.5t-57 -136.5l-45 -45l-302 -302l-347 347q-36 36 -49 72.5t-11 71.5t18 68.5t42 59.5t59.5 42
t68.5 18v0z" />
    <glyph glyph-name="uniE982" unicode="&#xe982;" 
d="M512 917q-97 0 -182 -37q-86 -37 -149.5 -100.5t-100.5 -149.5q-37 -85 -37 -182t37 -182q37 -86 100.5 -149.5t149.5 -100.5q85 -37 182 -37t182 37q86 37 149.5 100.5t100.5 149.5q37 85 37 182t-37 182q-37 86 -100.5 149.5t-149.5 100.5q-85 37 -182 37v0zM512 832
q80 0 150 -30t122 -82t82 -122t30 -150t-30 -150t-82 -122t-122 -82t-150 -30t-150 30t-122 82t-82 122t-30 150t30 150t82 122t122 82t150 30zM537 702q-55 9 -111 -19t-78 -93q-2 -3 -2.5 -6.5t-0.5 -7.5q0 -18 12.5 -30.5t30.5 -12.5q14 0 25 8t15 21v0q13 37 39.5 49
t55.5 7t50 -25t21 -60v0v0v0v0v0q0 -16 -12.5 -31.5t-32.5 -28.5t-37 -20l-17 -7q-13 -5 -21 -16t-8 -25q0 -17 12.5 -29.5t30.5 -12.5q3 0 6.5 0.5t6.5 1.5v0l23 9t51 28t55.5 51t27.5 80v0q0 69 -43 114t-99 55v0zM512 277v0h-1q-17 0 -29.5 -12.5t-12.5 -29.5
q0 -18 12.5 -30.5t29.5 -12.5h1v0v0h1v0q18 0 30.5 12.5t12.5 30.5q0 17 -12.5 29.5t-30.5 12.5v0h-1v0v0z" />
    </font>
</defs>
</svg>
